<svg id="Layer_1-2" xmlns="http://www.w3.org/2000/svg" width="761" height="116.422" viewBox="0 0 761 116.422">
  <path id="Path_21607" data-name="Path 21607" d="M40.426.59,0,113.094H33.426L38.484,97.62H78.408l5.057,15.474h34.063L77.135.59H40.46ZM44.646,71.7,58.58,28.657,72.312,71.7Z" transform="translate(0 1.386)" fill="#f9faf4"/>
  <path id="Path_21608" data-name="Path 21608" d="M67.57,33.9c0-3.885,4.555-6.2,9.78-6.2,6.2,0,10.919,3.249,10.919,7.67h31.986C120.289,15.172,101.5,0,77.719,0S35.651,14.5,35.651,36.374c0,38.149,54.293,33.125,54.293,45.651,0,3.751-5.225,6.665-11.254,6.665-7,0-12.727-4.053-12.727-9.11H34.01c0,20.7,19.895,36.843,44.345,36.843s43.541-15,43.541-37.981c0-39.288-54.293-31.45-54.293-44.513h0Z" transform="translate(79.901 0)" fill="#f9faf4"/>
  <path id="Path_21609" data-name="Path 21609" d="M125.889,71.217h39.757V41.844H125.889V29.954H170.87V.58H94.74V113.117h76.968V83.777H125.889Z" transform="translate(222.575 1.363)" fill="#f9faf4"/>
  <path id="Path_21610" data-name="Path 21610" d="M188.47,58.155,151.259.58H120.11V113.117h31.149V55.542l37.211,57.575h31.149V.58H188.47Z" transform="translate(282.177 1.363)" fill="#f9faf4"/>
  <path id="Path_21611" data-name="Path 21611" d="M185.36,33.9c0-3.885,4.555-6.2,9.78-6.2,6.2,0,10.919,3.249,10.919,7.67h31.986c0-20.2-18.756-35.369-42.57-35.369s-42.068,14.5-42.068,36.374c0,38.149,54.326,33.125,54.326,45.651,0,3.751-5.225,6.665-11.254,6.665-7,0-12.727-4.053-12.727-9.11H151.8c0,20.7,19.9,36.843,44.345,36.843s43.541-15,43.541-37.981c0-39.288-54.292-31.45-54.292-44.513h0Z" transform="translate(356.628 0)" fill="#f9faf4"/>
  <rect id="Rectangle_2723" data-name="Rectangle 2723" width="31.149" height="112.537" transform="translate(602.912 1.943)" fill="#f9faf4"/>
  <path id="Path_21612" data-name="Path 21612" d="M251.309,0C217.246,0,191.49,25.12,191.49,58.211s25.756,58.211,59.819,58.211,59.819-25.12,59.819-58.211S285.4,0,251.309,0Zm.034,86.413c-15.809,0-27.9-12.058-27.9-28.2s12.058-28.2,27.9-28.2,27.9,12.058,27.9,28.2S267.185,86.413,251.342,86.413Z" transform="translate(449.872 0)" fill="#f9faf4"/>
  <path id="Path_21613" data-name="Path 21613" d="M121.252,86.413h0c-15.809,0-27.9-12.058-27.9-28.168s12.058-28.2,27.9-28.2c9.813,0,18.22,4.689,22.742,12.091l21.9-23.177C155.248,7.235,139.439,0,121.252,0,87.156,0,61.4,25.12,61.4,58.211s25.756,58.211,59.852,58.211c18.924,0,35.3-7.77,45.919-20.33L144.966,72.58c-4.187,8.44-13.163,13.866-23.713,13.866h0Z" transform="translate(144.249)" fill="#f9faf4"/>
</svg>
