<svg xmlns="http://www.w3.org/2000/svg" width="427.3" height="594.875" viewBox="0 0 427.3 594.875">
  <g id="Group_5066" data-name="Group 5066" transform="translate(-157.001 -3673.562)">
    <g id="Group_4967" data-name="Group 4967" transform="translate(-789.648 -1347.448)">
      <path id="Path_21704" data-name="Path 21704" d="M904.1,474.344q.836,5.3,2.807,19.371,67.562.418,96.832-17.828a482.784,482.784,0,0,0-5.614-75,863.116,863.116,0,0,1-97.6,21.342,857.372,857.372,0,0,1-139.151,10.607q-1.221,31.145-.9,61.348,32.592-.611,119.909,2.571a538.218,538.218,0,0,1,11.078-62.547q8.453,15.331,12.643,40.134" transform="translate(269.282 5119.128)" fill="#4766e5"/>
      <path id="Path_21705" data-name="Path 21705" d="M892.378,204.282a41.566,41.566,0,0,0-5.786-23.913,56.285,56.285,0,0,0-13.478-4.478,53.412,53.412,0,0,0-29.27,2.079c-5.164,2.143-9.064,3.664-11.678,4.521a25.777,25.777,0,0,1-9,1.5,58.522,58.522,0,0,1,4.714,13.949,55.389,55.389,0,0,1-.9,27.127,6.731,6.731,0,0,1-3.45-2.378c-.986-1.2-1.736-3.836-2.207-7.928a9.06,9.06,0,0,0-4.286-5.957,8.4,8.4,0,0,0-5.314-.429,5.326,5.326,0,0,0-1.843,1.007c-2.057,1.714-3.021,4.585-2.871,8.635a11.861,11.861,0,0,0,.771,4.65,9.7,9.7,0,0,0,2.379,3.107c1.907,1.757,3.685,2.55,5.357,2.378a3.815,3.815,0,0,0,1.307-.236,58.556,58.556,0,0,0,9.471,14.785c.471.514.964,1.029,1.436,1.543q11.732,12.567,26.292,12.578a25.79,25.79,0,0,0,14.721-4.586,43.672,43.672,0,0,0,11.678-12.707q11.089-17.356,11.935-35.291h0Zm-66.3,80.782q4.179.964,14.25,2.143a43.712,43.712,0,0,0,18.6-1.543c5.678-1.821,10.157-2.314,13.414-1.436q-1.639-14.946-2.978-26.763-23.592,9.193-42.877,16.328c-.15,3.921-.279,7.671-.428,11.271ZM927.027,510.784a74.08,74.08,0,0,1-6.385-8.228,107,107,0,0,0-8.228-10.842q-4.468-4.307-6.685-6.493a40.707,40.707,0,0,1-3.814-4.114l-16.928,13.285c-4.928,3.707-8.357,6.193-10.307,7.521a57.969,57.969,0,0,1-11.035,6.021q-8.164,3.343-14.721,2.571c-3.171-.386-5.228-1.5-6.15-3.278-.707-1.5-.45-3.793.771-6.857a74.09,74.09,0,0,1,8.635-14.078q2.571-3.343,7.992-9.6l-5.014-7.928a5.7,5.7,0,0,1-.471-.771,85.869,85.869,0,0,0-21.878,13.778c-2.078,1.778-4.135,3.686-6.193,5.721-1.778,1.757-3.578,3.643-5.421,5.657a210.792,210.792,0,0,0-15.321,19.563q-7.071,1.864-14.142,3.15a168.087,168.087,0,0,0,.064,18,92.343,92.343,0,0,0,4.478,23.485,74.781,74.781,0,0,0,3.107,7.564c.129.236.257.471.364.707a101.046,101.046,0,0,0,35.72.471,115.926,115.926,0,0,0,14.785-3.279,127.861,127.861,0,0,0,22.949-9q28.252-14.3,53.826-43.048h0Zm67.6-281.11q-6.782-1-13.006-1.607a90.423,90.423,0,0,1-2.078,13.585c-.428-.771-.857-1.543-1.307-2.336q-15.139-26.292-40.005-40.07l-41.248,46.627A99.009,99.009,0,0,1,910.57,258.58a93.116,93.116,0,0,1,14.785,22.649q.482,1.061,6.257,15.214a77.418,77.418,0,0,0,7.328,14.421,38.752,38.752,0,0,0,4.286,5.421,34.325,34.325,0,0,0,7.521,6.085,24.4,24.4,0,0,0,8.593,3.278c.514,3.236,1.071,6.428,1.671,9.6a124.7,124.7,0,0,0,17.4-10.307,204.687,204.687,0,0,0,27.835-23.421L992.36,281.015c-.193-1.693-.429-3.386-.707-5.057a85.288,85.288,0,0,0,3.514-18.964,171.439,171.439,0,0,0-.536-27.3" transform="translate(304.848 4860.697)" fill="#fc5c80"/>
      <path id="Path_21706" data-name="Path 21706" d="M900.051,264.585q-14.56,0-26.292-12.578-.707,16.039-1.243,29.506,19.285-7.135,42.877-16.328c-.214-1.779-.407-3.514-.6-5.185a25.681,25.681,0,0,1-14.721,4.586m32.549-76.5a43.247,43.247,0,0,0-5.314-7.028,38.3,38.3,0,0,0-29.442-13.049q-17.517,0-29.934,14.142c-.879,1.007-1.693,2.014-2.443,3.043q-9.61,13.146-7.757,30.942a8.315,8.315,0,0,1,1.607-.236,7.785,7.785,0,0,1,3.686.664,8.991,8.991,0,0,1,4.286,5.957c.471,4.093,1.221,6.728,2.207,7.928a6.82,6.82,0,0,0,3.45,2.378,55.386,55.386,0,0,0,.9-27.127,57.588,57.588,0,0,0-4.714-13.949,25.293,25.293,0,0,0,9-1.5q3.921-1.318,11.678-4.521a53.226,53.226,0,0,1,29.27-2.078,56.288,56.288,0,0,1,13.478,4.478h0Zm-19.8,199.727a32.883,32.883,0,0,0-22.349,8.764A33.629,33.629,0,0,0,878.73,417.75l-11.507,83.118c1.843-2.014,3.643-3.9,5.421-5.657,2.057-2.036,4.135-3.943,6.193-5.721a86.462,86.462,0,0,1,21.878-13.778,6.734,6.734,0,0,0,.471.771l5.014,7.928q-5.432,6.268-7.992,9.6a72.365,72.365,0,0,0-8.635,14.078c-1.243,3.064-1.5,5.336-.771,6.857.921,1.779,2.957,2.871,6.15,3.278q6.557.771,14.721-2.571a58.635,58.635,0,0,0,11.035-6.021q2.925-1.961,10.306-7.521l16.928-13.285a40.722,40.722,0,0,0,3.814,4.114c1.478,1.478,3.685,3.643,6.685,6.493a109.611,109.611,0,0,1,8.228,10.842,74.1,74.1,0,0,0,6.385,8.228q-25.585,28.735-53.848,43.048a128.5,128.5,0,0,1-22.949,9c.429.043.878.064,1.307.064h46.627a33.118,33.118,0,0,0,22.413-8.764,33.638,33.638,0,0,0,11.678-21.171L993.84,428.056q1.736-12.407-5.786-21.171a.569.569,0,0,1-.107-.129c-.107-.15-.236-.279-.364-.429q-15.846-18.546-28.134-18.535H912.822ZM786.72,588.271a260.789,260.789,0,0,0,34.049-12.407,311.225,311.225,0,0,1-56.869,0q-6.621-.611-12.514-1.543a171.259,171.259,0,0,0,.429,20.978,3.142,3.142,0,0,0,.064.471,258.654,258.654,0,0,0,34.884-7.521" transform="translate(258.82 4853)" fill="#4a4a47"/>
      <path id="Path_21707" data-name="Path 21707" d="M790.474,413.578a82.769,82.769,0,0,1-16.156-2.143,25.888,25.888,0,0,1-11.935-6.557q-.964,15.492-1.543,30.77a857.178,857.178,0,0,0,139.151-10.607,858.467,858.467,0,0,0,97.6-21.342c-.257-1.736-.557-3.493-.836-5.25q-42.041,14.785-96.7,17.528-37.734,1.9-109.581-2.378Z" transform="translate(269.786 5116.34)" fill="#293694"/>
      <path id="Path_21708" data-name="Path 21708" d="M924.271,330.721q9.964-8.775,22.349-8.764h46.627q12.278,0,28.135,18.535a3.489,3.489,0,0,1,.364.429.564.564,0,0,0,.129.107q7.521,8.775,5.786,21.171L1012.1,474.822a33.835,33.835,0,0,1-11.678,21.171q-10.028,8.775-22.413,8.764H931.385a8.752,8.752,0,0,1-1.307-.064,115.94,115.94,0,0,1-14.785,3.279,101.552,101.552,0,0,1-35.72-.471c-.664-.129-1.35-.257-2.036-.407.579-.086,1.114-.193,1.672-.3a74.752,74.752,0,0,1-3.107-7.564,92.358,92.358,0,0,1-4.478-23.485,168.166,168.166,0,0,1-.064-18q7.071-1.286,14.121-3.171A214.534,214.534,0,0,1,901,435.009l11.507-83.118a33.728,33.728,0,0,1,11.742-21.171m-4.114-101.653c-6.728-.793-11.464-1.5-14.249-2.143a.431.431,0,0,0-.236.064,19.031,19.031,0,0,0-8.4,5.057q-5.175,5.56-5.185,17.121c0,1.479.064,3.428.171,5.893-.964.043-1.886.107-2.807.171a213.56,213.56,0,0,0-38.805,6.45,138.8,138.8,0,0,0-36.556,15.214q-17.838,10.864-32.849,29.335-12.985,17.581-24.149,35.72a290.312,290.312,0,0,0-26.185,53.483q-9.353,25.52-9.235,47.227.064,26.485,14.485,42.92,10.318,11.7,27.963,17.828a127.028,127.028,0,0,0,21.042,5.078c3.943.643,8.1,1.157,12.514,1.543a311.227,311.227,0,0,0,56.869,0,261.945,261.945,0,0,1-68.911,19.906q1.543,15.332,7.757,25.992a68.416,68.416,0,0,0,5.486,8.057c.193,1.071.386,2.186.536,3.343.236,1.993.471,5.957.707,11.914q.546,15.267,5.785,21.706c.407.471.814.943,1.243,1.436a25.779,25.779,0,0,0,11.935,6.557,83.012,83.012,0,0,0,16.156,2.143q71.836,4.307,109.581,2.378,54.673-2.732,96.7-17.528c3.107-1.114,6.15-2.271,9.128-3.45q-.289-10.96-.964-29.335c.75-.707,1.5-1.457,2.271-2.207a52.572,52.572,0,0,0,11.635-19.306,83.408,83.408,0,0,0,3.879-22.006,197.827,197.827,0,0,0-.407-22.542,627.983,627.983,0,0,0-14.25-100.282q7.2,3.7,11.571,5.657a106.989,106.989,0,0,0,22.649,7.564,65.481,65.481,0,0,0,24.085.407,46.208,46.208,0,0,0,21.513-9.664q10.9-9.128,14.614-24.749a64.1,64.1,0,0,0-.171-29.7,105.973,105.973,0,0,0-10.8-27.3q-4.757-8.71-15.857-25.156L1086.05,243.36a206.016,206.016,0,0,1-27.835,23.42,124.68,124.68,0,0,1-17.4,10.307c-.6-3.171-1.157-6.364-1.671-9.6a24.815,24.815,0,0,1-8.593-3.278,34.326,34.326,0,0,1-7.521-6.085q-26.838-2.282-53.548-3.214c.043-.707.064-1.35.064-1.907.407-8.421-1.157-14.892-4.65-19.371a22.3,22.3,0,0,0-11.035-7.093c-.557-.15-1.136-.321-1.736-.471q-4.886-1.318-13.414,1.436a43.377,43.377,0,0,1-18.6,1.543Z" transform="translate(225 4918.858)" fill="#d4eb42"/>
      <path id="Path_21709" data-name="Path 21709" d="M928.116,227.376a43.827,43.827,0,0,1-16.692,1.007c-6.728-.793-11.464-1.521-14.249-2.143a.431.431,0,0,0-.236.064,19.031,19.031,0,0,0-8.4,5.057c-2.507,2.678-4.135,6.428-4.821,11.207a32.639,32.639,0,0,0,4.221,1.007,51.337,51.337,0,0,0,9.064.664c2.271-.086,5.314-.3,9.128-.664a38.411,38.411,0,0,0,9.728-1.8,19.289,19.289,0,0,0,8.635-6.857,24.933,24.933,0,0,0,3.643-7.564m-74.054,30.77a26.7,26.7,0,0,0,4.95,3.943q5.85,3.632,15.685,5.55a44.416,44.416,0,0,0,8.593.836,21.649,21.649,0,0,0,8.228-1.607q7.393-2.925,11.807-11.635.418-.836.771-1.736c-2.743.064-5.421.15-7.992.236-4.5.15-8.678.386-12.578.664-.964.043-1.886.107-2.807.171a237.687,237.687,0,0,0-26.656,3.578m-32.013,21.771q-7.393.129-11.442,3.407a14.719,14.719,0,0,0-4.586,7.028,36.632,36.632,0,0,0-1.736,8.593A26.819,26.819,0,0,0,804.2,304a10.728,10.728,0,0,0,1.307,4.714,10.106,10.106,0,0,0,5.593,4.221,16.983,16.983,0,0,0,7.328.707,23.744,23.744,0,0,0,14.121-5.85,17.833,17.833,0,0,0,4.586-6.193,16.239,16.239,0,0,0,1.607-7.521,14.535,14.535,0,0,0-2.143-7.393,13.192,13.192,0,0,0-5.593-5.185A18.965,18.965,0,0,0,822.071,279.895Zm53.248,34.884a12.976,12.976,0,0,0-5.25,5.893,19.182,19.182,0,0,0-1.843,7.928,12.712,12.712,0,0,0,1.371,6.45c1.864,3.171,5.357,4.993,10.5,5.421,5.571.429,9.75-.857,12.578-3.878q3.889-4.178,3.214-11.678c-.279-4.221-1.629-7.307-4.05-9.3q-2.507-2.089-7.328-2.507a15.818,15.818,0,0,0-9.171,1.671m54.126-27.727a12.351,12.351,0,0,0,.172-7.521,10.772,10.772,0,0,0-4.114-6.15,13.317,13.317,0,0,0-6.985-2.314A15.394,15.394,0,0,0,909,273.338a12.475,12.475,0,0,0-3.514,3.514,10.77,10.77,0,0,0-1.8,4.65,10.9,10.9,0,0,0,.836,5.657,14.282,14.282,0,0,0,3.343,4.778,13.414,13.414,0,0,0,7.628,3.878,12.3,12.3,0,0,0,8.464-1.971,12.911,12.911,0,0,0,5.486-6.793m40.413,8.4a13.277,13.277,0,0,0,.129,8.828,10.933,10.933,0,0,0,4.178,4.95,12.55,12.55,0,0,0,6.15,2.078,13.366,13.366,0,0,0,9.3-2.914,12.649,12.649,0,0,0,5.185-8.164,11.834,11.834,0,0,0-.6-6.45,10.835,10.835,0,0,0-3.878-5.121,14.189,14.189,0,0,0-7.157-2.271q-6.139-.289-9.728,2.914a12.8,12.8,0,0,0-3.578,6.15m52.712,14.785a10.681,10.681,0,0,0,1.136,6.193,11.483,11.483,0,0,0,4.35,4.585,11.927,11.927,0,0,0,6.085,1.671,11.692,11.692,0,0,0,8.292-3.45,10.708,10.708,0,0,0,2.036-12.771,10.36,10.36,0,0,0-2.872-3.578,11.739,11.739,0,0,0-7.757-2.443,11.577,11.577,0,0,0-8.892,3.986,10.3,10.3,0,0,0-2.379,5.785m48.3-6.45a12.28,12.28,0,0,0-1.243,8.164,11.734,11.734,0,0,0,3.343,7.328c1.629,1.629,4.243,2.871,7.864,3.686q8.582,1.961,13.114-1.671a9.682,9.682,0,0,0,3.043-4.285,12.066,12.066,0,0,0,.6-5.314,14.952,14.952,0,0,0-4.885-9.235,15.659,15.659,0,0,0-11.4-4.714,12.9,12.9,0,0,0-6.085,1.607,10.79,10.79,0,0,0-4.35,4.414m12.407-52.476a10.921,10.921,0,0,0-3.043,4.178,33.842,33.842,0,0,0-1.307,10.607,28.178,28.178,0,0,0,.707,7.092,8.461,8.461,0,0,0,3.75,5.421,9.953,9.953,0,0,0,4.35,1.071c.236,0,1.778-.064,4.585-.171a37.489,37.489,0,0,1,10.607.771l-19.67-28.97Zm55.262,124.023a62.66,62.66,0,0,0,1.243-21.513,20.522,20.522,0,0,0-4.65,1.436,24.5,24.5,0,0,0-10.307,8.335,37.353,37.353,0,0,0-5.593,11.935,83.085,83.085,0,0,0-2.614,13.114q-1.382,8.646.172,13.714a17.192,17.192,0,0,0,.771,2.078,41.438,41.438,0,0,0,6.385-4.35q10.9-9.128,14.614-24.749m-34.82-10.307q-1.253-3.761-5.721-9.192a27.773,27.773,0,0,0-3.407-3.514,10.507,10.507,0,0,0-4.114-2.271,9.185,9.185,0,0,0-5.314.3,11.654,11.654,0,0,0-4.585,2.807,22.382,22.382,0,0,0-5.186,9.428,23.061,23.061,0,0,0-1.307,8.764,15.642,15.642,0,0,0,1.843,6.021A14.659,14.659,0,0,0,1089,385.083a14.892,14.892,0,0,0,14.614-10.564,15.584,15.584,0,0,0,.107-9.535m-49.2,1.907a10.762,10.762,0,0,0-4.286-7.093,13.51,13.51,0,0,0-8.4-2.271,15.554,15.554,0,0,0-5.657,1.2,10.584,10.584,0,0,0-4.35,3.943,11.08,11.08,0,0,0-1.779,5.657,12.729,12.729,0,0,0,6.364,11.507,12.054,12.054,0,0,0,6.685,1.436,11.853,11.853,0,0,0,6.45-2.207,12.4,12.4,0,0,0,4.221-5.378,12.088,12.088,0,0,0,.771-6.793M1027,521.6a15.873,15.873,0,0,0-.536-12.471,10.2,10.2,0,0,0-3.878-3.814,10.83,10.83,0,0,0-5.186-1.543,11.689,11.689,0,0,0-5.378,1.071,11.932,11.932,0,0,0-4.35,3.279,12.286,12.286,0,0,0-2.979,7.221,11.89,11.89,0,0,0,1.736,7.564,11.716,11.716,0,0,0,6.086,4.885,11.143,11.143,0,0,0,11.742-2.336,11.523,11.523,0,0,0,2.743-3.878m-27.063,47.334a12.374,12.374,0,0,0-.707-5.85,11.03,11.03,0,0,0-3.343-4.778,10.273,10.273,0,0,0-8.528-2.336,11.236,11.236,0,0,0-4.243,1.607,11.616,11.616,0,0,0-3.279,3.107,14.022,14.022,0,0,0-2.207,5.785,12.11,12.11,0,0,0,.664,6.75,10.049,10.049,0,0,0,5.057,5.314,10.843,10.843,0,0,0,4.821,1.2,11.949,11.949,0,0,0,4.886-1.007,10.913,10.913,0,0,0,4.65-3.986,12.836,12.836,0,0,0,2.207-5.786ZM853.333,394.469A13.232,13.232,0,0,0,846.3,396.2c-1.779,1.071-3.75,3.321-5.914,6.728-2.271,3.728-3.45,6.835-3.578,9.3a11.511,11.511,0,0,0,1.607,6.321,11.068,11.068,0,0,0,4.778,4.414,11.189,11.189,0,0,0,5.657,1.071,13.981,13.981,0,0,0,5.657-1.436,18.882,18.882,0,0,0,8.164-8.057,17.183,17.183,0,0,0,2.507-9.771,12.086,12.086,0,0,0-1.371-4.885A9.714,9.714,0,0,0,860.4,396.2a12.008,12.008,0,0,0-7.092-1.736Zm-35.056-29.034a19.423,19.423,0,0,0-6.921-6.193,24.739,24.739,0,0,0-8.935-2.807,17.415,17.415,0,0,0-9,1.007,11.594,11.594,0,0,0-5.657,5.421,12.4,12.4,0,0,0-1.607,7.757,22.838,22.838,0,0,0,.9,3.986c.707,2.228,1.114,3.536,1.2,3.943.236.793.536,1.993.9,3.578a17.754,17.754,0,0,0,1.307,3.407,10.783,10.783,0,0,0,5.186,4.478,18.66,18.66,0,0,0,6.985,1.5q7.939.289,13.05-4.05a15.454,15.454,0,0,0,5.485-10.8,16.893,16.893,0,0,0-2.871-11.207h0Zm-22.113,89.011a16.438,16.438,0,0,0,1.071,8.057,9.914,9.914,0,0,0,5.485,5.85,11.779,11.779,0,0,0,6.086.6A38.484,38.484,0,0,0,815,467.409a39.037,39.037,0,0,0,3.814-1.436,9.995,9.995,0,0,0,3.279-2.378,11.624,11.624,0,0,0,2.571-6.728,17.905,17.905,0,0,0-.6-7.221,10.8,10.8,0,0,0-3.878-5.85,14.2,14.2,0,0,0-8.1-2.443c-5.614-.193-9.771,1.243-12.514,4.286a15.15,15.15,0,0,0-3.407,8.828h0Zm-7.157,54.791c.643.064,1.286.129,1.907.171-.064-1.586-.15-2.871-.236-3.878q-1.125-9.964-6.15-14.014a15.783,15.783,0,0,0-7.093-3.043,54.091,54.091,0,0,0-8.1-.664,17.681,17.681,0,0,0-7.457.707,14.025,14.025,0,0,0-3.214,2.143c-.471.407-1.393,1.264-2.743,2.636a55.946,55.946,0,0,0-5.85,7.221c1.736.75,3.514,1.436,5.357,2.1a124.862,124.862,0,0,0,21.042,5.057c3.943.643,8.1,1.157,12.514,1.543h0ZM827.642,567.2a14.748,14.748,0,0,0-5.957.6,12.016,12.016,0,0,0-5.057,2.978q-4.05,4.05-3.943,11.271c.086,3.771,1.071,6.728,2.978,8.893a11.716,11.716,0,0,0,7.693,3.514,13.351,13.351,0,0,0,9.064-1.907q4.66-3.054,5.893-9.771a16.5,16.5,0,0,0,0-6.793A10.826,10.826,0,0,0,835.1,570.2a12.277,12.277,0,0,0-7.457-2.978m41.505-14.614c-.086-3.707-1.093-6.6-3.043-8.7a9.933,9.933,0,0,0-5.657-2.978,14.731,14.731,0,0,0-6.557.171,14.478,14.478,0,0,0-6.793,3.686A13.325,13.325,0,0,0,844.12,559.1a12.89,12.89,0,0,0,4.886,5.85,12.286,12.286,0,0,0,7.328,2.143,13.137,13.137,0,0,0,11.914-8.4,15.859,15.859,0,0,0,.9-6.085ZM943.03,524.47a10.293,10.293,0,0,0-3.214-4.35,13.578,13.578,0,0,0-7.157-2.443,16.375,16.375,0,0,0-5.593.471,10.293,10.293,0,0,0-4.778,2.614,10.991,10.991,0,0,0-2.807,5.185,15.393,15.393,0,0,0-.129,6.021,12.351,12.351,0,0,0,2.743,6.45,11.287,11.287,0,0,0,4.714,3.171,15.275,15.275,0,0,0,5.721.836,12.5,12.5,0,0,0,7.928-2.743q3.921-3.407,3.707-9.835a15.991,15.991,0,0,0-1.136-5.378M923.959,581.3a11.172,11.172,0,0,0-5.721.9,11.566,11.566,0,0,0-4.586,3.514,12.458,12.458,0,0,0-2.507,5.121,12.135,12.135,0,0,0,0,5.55,9.891,9.891,0,0,0,2.571,4.821,10.671,10.671,0,0,0,6.385,3.278,12.122,12.122,0,0,0,5.186-.407,10.92,10.92,0,0,0,4.478-2.443,11.954,11.954,0,0,0,3.107-4.114,11.824,11.824,0,0,0-.171-10.2A11.019,11.019,0,0,0,924,581.3h0ZM757.444,346.985c-1.671-2.978-3.107-5.7-4.285-8.164a20.31,20.31,0,0,0-1.671-2.571c-1.007,1.65-2.036,3.3-3.043,4.95a290.944,290.944,0,0,0-19.135,36.127,29.246,29.246,0,0,0,5.057,1.136q10.8,1.543,18.192-2.978a18.967,18.967,0,0,0,6.728-6.621,15.935,15.935,0,0,0,2.507-8.892,22.469,22.469,0,0,0-1.436-6.728,59.3,59.3,0,0,0-2.914-6.257m.236,72.254a11.531,11.531,0,0,0-7.457-3.343,13.817,13.817,0,0,0-8.7,2.143,14.908,14.908,0,0,0-6.021,6.728,15.405,15.405,0,0,0-1.071,8.935A16.689,16.689,0,0,0,738.138,442a15,15,0,0,0,5.121,3.986,11.465,11.465,0,0,0,11.871-1.007,13.725,13.725,0,0,0,4.114-4.478,19.353,19.353,0,0,0,2.271-11.678q-.546-6.2-3.814-9.6Z" transform="translate(233.754 4919.543)" fill="#914f36"/>
      <path id="Path_21710" data-name="Path 21710" d="M1035.329,334.6a1.215,1.215,0,0,1-1.071-.664,323.461,323.461,0,0,1-27.835-83.4,1.189,1.189,0,0,1,2.336-.45h0a320.555,320.555,0,0,0,27.62,82.775,1.2,1.2,0,0,1-.536,1.607,1.161,1.161,0,0,1-.536.129M834.145,432.5h-.064c-13.907-.686-25.585-2.036-34.713-4.028a57.362,57.362,0,0,1-10.95-3.236,28.38,28.38,0,0,1-9.471-6.364c-4.885-5.271-7.371-12.664-7.371-21.985a67.182,67.182,0,0,1,5.571-24.792,171.351,171.351,0,0,1,12.064-22.649c2.957-4.8,5.957-9.535,8.893-14.035a1.195,1.195,0,0,1,2.014,1.286h0c-2.936,4.5-5.914,9.192-8.871,13.992a167.719,167.719,0,0,0-11.892,22.306c-3.493,8.443-5.314,16.478-5.4,23.87,0,8.7,2.25,15.557,6.707,20.335a25.98,25.98,0,0,0,8.657,5.807,55.7,55.7,0,0,0,10.5,3.086c9.021,1.971,20.57,3.3,34.349,3.964a1.19,1.19,0,0,1-.064,2.378ZM792.94,485.661q-14.3,0-28.606-1.286c-4.414-.386-8.657-.921-12.6-1.564a1.193,1.193,0,0,1-.986-1.371,1.178,1.178,0,0,1,1.371-.986h0c3.9.621,8.078,1.157,12.428,1.543a313.935,313.935,0,0,0,79.54-2.914,1.188,1.188,0,0,1,1.371.986,1.2,1.2,0,0,1-.986,1.371,316.891,316.891,0,0,1-51.534,4.221m-22.413,59.7a1.2,1.2,0,0,1-.021-2.4l239.668-4.671a1.238,1.238,0,0,1,1.222,1.157,1.212,1.212,0,0,1-1.179,1.221l-239.669,4.671h-.021Z" transform="translate(258.236 4945.689)" fill="#333840"/>
      <path id="Path_21711" data-name="Path 21711" d="M939.2,223.967a1.2,1.2,0,0,1-1.007-.557c-4.607-7.221-8.593-12.321-11.785-15.128-3.279-2.871-8.635-7.371-15.921-13.328a1.188,1.188,0,0,1,1.5-1.843c7.307,5.978,12.664,10.478,15.985,13.371,3.386,2.957,7.5,8.228,12.235,15.642a1.187,1.187,0,0,1-.364,1.65,1.134,1.134,0,0,1-.643.193M832.128,237.36A25.231,25.231,0,0,1,821.8,235.2a32,32,0,0,1-7.071-4.586c-1.5-1.307-3.514-3.257-6-5.807a1.2,1.2,0,1,1,1.714-1.671c2.421,2.507,4.393,4.414,5.828,5.657a29.019,29.019,0,0,0,6.514,4.221,23.351,23.351,0,0,0,12.664,1.757,27.592,27.592,0,0,0,10.392-3.536,1.191,1.191,0,1,1,1.2,2.057,29.831,29.831,0,0,1-11.314,3.857,33.83,33.83,0,0,1-3.6.236m89.439,3.386a1.2,1.2,0,0,1-1.028-.6c-8.443-14.528-17.421-23.785-26.72-27.492a1.167,1.167,0,0,1-.664-1.543,1.2,1.2,0,0,1,1.543-.664c9.792,3.9,19.178,13.5,27.9,28.5a1.2,1.2,0,0,1-.429,1.628,1.394,1.394,0,0,1-.6.171m50.441,15.342a1.213,1.213,0,0,1-1.178-.964,99.166,99.166,0,0,0-10.607-29.806,1.195,1.195,0,0,1,2.079-1.178,102.028,102.028,0,0,1,10.864,30.534,1.191,1.191,0,0,1-.943,1.393c-.086,0-.15.021-.235.021ZM852.891,503.985a1.2,1.2,0,0,1-1.2-1.2,1.17,1.17,0,0,1,.857-1.136,56.738,56.738,0,0,0,18.685-10.092c2.764-2.078,6.021-4.843,9.707-8.228,2.057-1.928,5.143-4.843,9.3-8.7a1.21,1.21,0,0,1,1.693.064,1.166,1.166,0,0,1-.064,1.671c-4.135,3.857-7.221,6.75-9.3,8.7-3.75,3.428-7.071,6.257-9.878,8.378a59.466,59.466,0,0,1-19.456,10.478,1.66,1.66,0,0,1-.343.043m8.057,13.264a1.2,1.2,0,0,1-.493-2.293,111.813,111.813,0,0,0,38.763-28.37,1.186,1.186,0,0,1,1.671-.107A1.212,1.212,0,0,1,901,488.15a114.241,114.241,0,0,1-39.577,28.97,1.255,1.255,0,0,1-.471.107" transform="translate(324.129 4881.382)" fill="#b52b4a"/>
      <path id="Path_21712" data-name="Path 21712" d="M811.707,364.461h-.171a1.176,1.176,0,0,1-1.007-1.35l7.928-57.3a34.817,34.817,0,0,1,12.149-21.9c6.835-6,14.614-9.064,23.142-9.064h46.627a27.352,27.352,0,0,1,15.878,4.628,25.849,25.849,0,0,1,4.5,4.007,1.2,1.2,0,0,1-1.778,1.607h0a22.515,22.515,0,0,0-4.071-3.621,25.014,25.014,0,0,0-14.528-4.2H853.747a32,32,0,0,0-21.578,8.464,32.614,32.614,0,0,0-11.357,20.442l-7.928,57.3a1.181,1.181,0,0,1-1.179,1.029" transform="translate(326.551 4975.093)" fill="#999ea8"/>
      <path id="Path_21713" data-name="Path 21713" d="M845.676,202.157a1.2,1.2,0,0,1-1.2-1.2v-2.871a1.194,1.194,0,0,1,1.179-1.2,1.208,1.208,0,0,1,1.2,1.179h0v2.871a1.2,1.2,0,0,1-1.2,1.2m-21.942.6a1.181,1.181,0,0,1-1.179-1.136c-.043-.964-.064-1.821-.064-2.55a1.189,1.189,0,1,1,2.378-.021h0c0,.707.021,1.521.064,2.464a1.2,1.2,0,0,1-1.136,1.243h-.043M836.2,217.35a1.2,1.2,0,0,1-1.2-1.2,1.15,1.15,0,0,1,.321-.814l2.614-2.828L834.512,201.9a1.193,1.193,0,0,1,2.271-.729l3.643,11.271a1.192,1.192,0,0,1-.257,1.179l-3.107,3.343a1.2,1.2,0,0,1-.879.386m4.886-27.685a1.2,1.2,0,0,1-1.2-1.2,1.229,1.229,0,0,1,.514-.986c4.457-3.086,8.7-3.214,12.643-.407a1.2,1.2,0,0,1-1.393,1.95c-3.064-2.207-6.3-2.057-9.9.429a1.09,1.09,0,0,1-.686.214m-24.577,1.521a1.2,1.2,0,0,1-1.2-1.2,1.229,1.229,0,0,1,.514-.986c4.457-3.086,8.7-3.236,12.642-.407a1.2,1.2,0,1,1-1.393,1.95c-3.064-2.207-6.3-2.057-9.9.429a1.09,1.09,0,0,1-.686.214m22.606,36.6a1.2,1.2,0,0,1,1.2,1.2,1.229,1.229,0,0,1-.514.986c-4.457,3.086-8.7,3.214-12.643.407a1.2,1.2,0,0,1,1.393-1.95c3.064,2.186,6.3,2.057,9.9-.429a1.238,1.238,0,0,1,.686-.214" transform="translate(331.987 4872.486)" fill="#2e3647"/>
      <path id="Path_21714" data-name="Path 21714" d="M774.757,249.206a4.133,4.133,0,0,1-3.621-2.1l-19.263-33.684a4.17,4.17,0,1,1,7.242-4.136l19.264,33.684a4.178,4.178,0,0,1-1.543,5.7,4.118,4.118,0,0,1-2.057.557m15.557,22.349a4.17,4.17,0,0,1-4.178-4.178,33.813,33.813,0,0,1,1.243-9.385,4.171,4.171,0,1,1,8.014,2.314,25.313,25.313,0,0,0-.9,7.071A4.17,4.17,0,0,1,790.335,271.576Z" transform="translate(258.912 4897.756)" fill="#4a148c"/>
      <path id="Path_21715" data-name="Path 21715" d="M781.123,236.858a4.174,4.174,0,0,1-4.028-3.107l-7.992-30.3a4.176,4.176,0,1,1,8.078-2.121l7.992,30.3a4.181,4.181,0,0,1-2.979,5.1,4.4,4.4,0,0,1-1.05.129m7.478,20.678a4.17,4.17,0,0,1-4.178-4.178,3.594,3.594,0,0,1,.15-1.071,28.858,28.858,0,0,1,3-7.285,4.176,4.176,0,0,1,7.157,4.307,20.955,20.955,0,0,0-2.1,5.121,4.193,4.193,0,0,1-4.028,3.107" transform="translate(279.073 4887.519)" fill="#0378bd"/>
    </g>
  </g>
</svg>
