<svg xmlns="http://www.w3.org/2000/svg" width="696.993" height="534.571" viewBox="0 0 696.993 534.571">
  <g id="Layer_1" data-name="Layer 1" transform="translate(-0.009)">
    <g id="Group_4947" data-name="Group 4947" transform="translate(0.009 4.658)">
      <path id="Path_21618" data-name="Path 21618" d="M663.249,248.02a33.433,33.433,0,0,1,11.906-3.426,21.664,21.664,0,0,1,4.031,0q-24.47-3.133-38.539,2.339-16.512,6.454-25.567,18.653c-3.843,6.141-6.747,10.695-8.689,13.7q-5.264,8.084-25.4,24.439-30.2,33.807-44.22,68.91a88.622,88.622,0,0,1,1.8,10.486,161.648,161.648,0,0,1,.773,17.233c0,4.157-.125,8.752-.313,13.744-.209,3.676-.334,5.87-.418,6.538,0,.167-.042.376-.042.606,0,.731.021,1.734.1,3.008q.407,6.36,2.4,21.87a32.319,32.319,0,0,1,2.757-10.841c.23-.543.48-1.086.71-1.629a115.935,115.935,0,0,1,6.141-11.593,195.5,195.5,0,0,1,11.4-16.857c.48-.606.961-1.253,1.42-1.88q1.942-2.569,4.449-5.828,6.768-8.836,17.588-22.684a258.681,258.681,0,0,0,32.565-59.74c1.023-2.632,1.984-5.243,2.9-7.875l14.058-35.071c.606-.877,1.253-1.755,1.88-2.611a71.826,71.826,0,0,1,26.277-21.473ZM324.11,4.841,318.846,2.23,308.11,8.413ZM263.848,189.2c-2.465.334-4.637.731-6.538,1.17a51.562,51.562,0,0,1,7.269,1.483c.522-.982,1.024-2.005,1.525-3.008-.71.125-1.462.251-2.256.355h0Zm88.127-7.457-2.089.5.209,1.734q.971-1.1,1.88-2.256ZM76.628,173.262a34.866,34.866,0,0,0-7.248,2.966c-.334.188-.648.376-.961.564a156.419,156.419,0,0,1,82.4,25.651l-4.6-38.016a100.062,100.062,0,0,0-31.123-.418q-15.541,2.037-38.434,9.253ZM13.191,157.052a4.693,4.693,0,0,0-.564-3.008,5.385,5.385,0,0,0-3.112-2.465,9.08,9.08,0,0,0-4.031-.355,1.2,1.2,0,0,1-.606.1A5.578,5.578,0,0,0,1.911,152.6a5.107,5.107,0,0,0-1.734,2.715,5.622,5.622,0,0,0,.146,3.217,5.474,5.474,0,0,0,1.943,2.548,7.411,7.411,0,0,0,4.742,1.232,6.282,6.282,0,0,0,3.071-.668,4.76,4.76,0,0,0,1.943-1.692A6.2,6.2,0,0,0,13.191,157.052Zm21.515,82.9a5.566,5.566,0,0,0,.71,3.467A8.7,8.7,0,0,0,41.2,247.31a9.121,9.121,0,0,0,5.682-.146,6.731,6.731,0,0,0,2.339-1.692,4.87,4.87,0,0,0,1.128-2.548,5.189,5.189,0,0,0-1.274-4.094,9.52,9.52,0,0,0-3.53-2.548,8.764,8.764,0,0,0-6.5-.606,6.824,6.824,0,0,0-2.757,1.232,4.7,4.7,0,0,0-1.587,3.071Z" transform="translate(-0.009 -2.23)" fill="#00bdd4"/>
      <path id="Path_21619" data-name="Path 21619" d="M353.927,46.141c.125,1.567.272,3.259.418,5.055.272,2.987.522,5.828.773,8.543.564,6.162,1.086,11.593,1.587,16.251.063.48.125.94.146,1.379h3.843a85.547,85.547,0,0,1,15.687.815q8.428,1.567,20.136,8.272c.585.334,1.149.689,1.734,1.024q9.556,5.64,15.123,8.689c2.757,1.5,4.783,2.507,6.078,3.071,2.632,1.065,4.616,1.149,5.974.251a3.888,3.888,0,0,0,1.17-4.136A11.813,11.813,0,0,0,424.4,90.7Q400.34,57.64,372.684,49.9q-3.478-.909-13.6-2.757c-1.838-.313-3.572-.668-5.159-1.024M114.675,250.155c-2.9-3.342-5.619-6.81-8.188-10.423-4.6-6.329-7.186-9.9-7.77-10.674a109.692,109.692,0,0,0-32.209-28.617,49.2,49.2,0,0,0-6.789-3.426,19.689,19.689,0,0,0-7.269-1.525,13.309,13.309,0,0,0-7.206,2.047,10.847,10.847,0,0,0-3.53,3.426,53.239,53.239,0,0,1,17.233,9.567,79.016,79.016,0,0,1,18.4,21.87,178.6,178.6,0,0,1,11.969,25.922q3.415,8.836,10.277,26.632a209.149,209.149,0,0,0,38.789,60.116l-5.723-47.124-3.321-27.593L128.21,261.1a45.439,45.439,0,0,1-13.535-10.883h0ZM38.12,286.646a4.98,4.98,0,0,0-3.008.877,6.024,6.024,0,0,0-2.548,4.6,11.382,11.382,0,0,0,.877,5.306,12.753,12.753,0,0,0,2.653,4.345,6.672,6.672,0,0,0,4.658,1.984,5.572,5.572,0,0,0,5.055-4.616,7.2,7.2,0,0,0-.313-2.9c-.1-.376-.439-1.337-1.024-2.862-.376-1.024-.689-1.8-.919-2.3a22.152,22.152,0,0,0-1.17-2.193s-2.569-2.381-4.24-2.256Z" transform="translate(35.386 45.558)" fill="#4db04f"/>
      <path id="Path_21620" data-name="Path 21620" d="M561.283,292.791q4.543-5.013,9.4-10.026A131.133,131.133,0,0,0,548.6,263.652q-8.178-5.734-24.794-15.645-22.9-13.692-38.476-21.515a70.162,70.162,0,0,1-17.943,1.984c-8.836-.1-19.363-1.629-31.645-4.6-4.2-1.086-7.436-2.068-9.755-2.9a35.81,35.81,0,0,1-8.9-4.658,22.743,22.743,0,0,1-6.747-7.624c-.167-.313-.313-.606-.46-.919q-21.713,1.1-46.351,9.713c-2.026.71-4.178,1.483-6.434,2.36q-8.836,3.447-20.032,8.543-13.41,6.141-30.2,14.663-11.906-3.2-13.744-2.862a39.406,39.406,0,0,0-11.8,4.449,90.02,90.02,0,0,0-13.452,9.65,227.384,227.384,0,0,0-29.6,30.058h.042q-8.992,18.455-9.358,27.593a47.056,47.056,0,0,0,2.611,17.588c.063.23.961,2.569,2.653,7a30.111,30.111,0,0,1,1.943,7.06,25.94,25.94,0,0,1-1.42,12.428,53.256,53.256,0,0,1-5.828,11.509c-1.5,2.381-3.823,5.953-6.956,10.674a2.72,2.72,0,0,1-.313.418,9.438,9.438,0,0,1-1.065-.042,57.672,57.672,0,0,1-5.974-1.065q-6.736-1.379-9.462-1.692a2.114,2.114,0,0,1-.355-.063l5.055,42.006a95.08,95.08,0,0,0,10.632-.46q14.35-1.6,23.52-8.543a39.557,39.557,0,0,0,7.624-7.666,54.868,54.868,0,0,0,4.8-7.353q.846-1.567,1.692-3.384a130.7,130.7,0,0,0,5.828-15.081c.877-2.653,1.713-5.306,2.507-7.979a382.741,382.741,0,0,0,13.744-63.019,367.214,367.214,0,0,1,63.542-20.7c1.629-.376,3.238-.731,4.846-1.065q7.864-1.692,15.75-3.071a367.973,367.973,0,0,1,65.839-5.306,112.357,112.357,0,0,1,16.209,17.128q12,15.635,22.392,38.789,6.078,13.536,17.066,41.254,2.914,6.924,5.765,13.1a223.434,223.434,0,0,0,11.7,21.974c.919,1.525,3.635,2.966,8.125,4.345-2.423-3.447-3.614-7.791-3.572-13.076a52.077,52.077,0,0,1,1.065-9.191q.47-2.35,1.128-4.95a176.325,176.325,0,0,1,7.06-21.765q14.005-35.092,44.22-68.91M295.8,16.588a6.318,6.318,0,0,0-3.071-3.572,5.241,5.241,0,0,0-7.186,1.817,4.833,4.833,0,0,0-.439.94,6.3,6.3,0,0,0,0,4.7,6.594,6.594,0,0,0,3.071,3.676,5.178,5.178,0,0,0,4.407.355,5.326,5.326,0,0,0,3.217-3.112,6.8,6.8,0,0,0,0-4.8m5.932,27.447a6.8,6.8,0,0,0,0-4.8,6.317,6.317,0,0,0-3.071-3.572,5.241,5.241,0,0,0-7.186,1.817,6.468,6.468,0,0,0-.439.94,6.3,6.3,0,0,0,0,4.7,6.513,6.513,0,0,0,3.071,3.676,5.138,5.138,0,0,0,4.387.355,5.326,5.326,0,0,0,3.217-3.112ZM34.569,147.076a9.243,9.243,0,0,0-6.789-2.82,9.579,9.579,0,0,0-9.65,9.546v.125a9.661,9.661,0,1,0,16.46-6.851" transform="translate(19.721 8.708)" fill="#5e36b0"/>
      <path id="Path_21621" data-name="Path 21621" d="M190.118,97.216a52.644,52.644,0,0,0,5.514-.418,66.806,66.806,0,0,1-8.376-14.1q-5.17-10.841-5.013-20.178a31.45,31.45,0,0,1,.919-6.851L139.11,81.133q4.95,2.789,8.334,4.491A123.532,123.532,0,0,0,167.935,94.1,72,72,0,0,0,190.118,97.216Zm75.845,28.575a164.287,164.287,0,0,1-20.909,20.846,170.428,170.428,0,0,1-20.8,14.768c-2.089,1.274-4.219,2.507-6.392,3.676a103.885,103.885,0,0,1,6.642,14.559,134.26,134.26,0,0,1,4.2,13.285q1.849-.345,13.744,2.862,16.794-8.554,30.2-14.663l-6.684-55.353ZM77.26,232.049l.773,6.078,1.483,12.512,1.128,9.253,3.321,27.593c2.381,3.948,4.721,7.541,7.06,10.778q12.5,17.483,27.8,26.11l-8.9-73.8a163.877,163.877,0,0,1-15.645-7.917q-6.486-3.7-17.024-10.632Zm188.2,56.126c2.527-.313,4.428.125,5.723,1.274a4.28,4.28,0,0,1,1.17,4.24,6.45,6.45,0,0,1-2.444,4.094,12.039,12.039,0,0,1-4.3,2.047c-.689.167-2.235.46-4.658.877a89.368,89.368,0,0,0-44.888,22.037,34.705,34.705,0,0,1,6.956,3.426q7.9,5.107,13.431,16.146a160.037,160.037,0,0,1,42.841-19.175q5.17-1.441,10.214-2.4l-7.457-61.432A223.228,223.228,0,0,0,248.835,270.3c-7.039,3.279-11.28,6.684-12.679,10.214-1.4,3.572-1.922,6.12-1.525,7.666a9.135,9.135,0,0,0,6.392,6.392,12.712,12.712,0,0,0,7.875-.815c1.734-.648,4.3-1.817,7.729-3.53A31.273,31.273,0,0,1,265.462,288.175Zm-100.43,94.874a60.118,60.118,0,0,0-17.483,5.118l2.611,21.306,41.546-24.021A58.351,58.351,0,0,0,165.032,383.049Z" transform="translate(84.102 55.956)" fill="#6b1c99"/>
      <path id="Path_21622" data-name="Path 21622" d="M144.721,225.9a46.206,46.206,0,0,1,14.058,2.653,88.927,88.927,0,0,1,16.209-11.76,87.694,87.694,0,0,1,28.679-10.277c2.423-.418,3.969-.71,4.658-.877a12.383,12.383,0,0,0,4.3-2.047,6.363,6.363,0,0,0,2.444-4.094,4.312,4.312,0,0,0-1.17-4.24c-1.3-1.149-3.2-1.587-5.723-1.274a31.271,31.271,0,0,0-8.836,2.047,82.457,82.457,0,0,1-7.729,3.53,12.712,12.712,0,0,1-7.875.815,9.135,9.135,0,0,1-6.392-6.392c-.376-1.546.125-4.094,1.525-7.666q2.1-5.3,12.679-10.214a221.594,221.594,0,0,1,33.212-10.987l-2.757-22.956a369,369,0,0,0-63.542,20.7,382.283,382.283,0,0,1-13.744,63.019Zm-1.734,26.632c.063-.146.146-.313.209-.46-.48-.188-.982-.376-1.483-.564a34.577,34.577,0,0,1-5.326-2.548c-.564,1.212-1.128,2.319-1.692,3.363a52.34,52.34,0,0,1-4.8,7.353c2.11.982,4.637,2.277,7.561,3.885.4.23.794.418,1.17.606.5-1.483,1.044-3.112,1.629-4.846,1.149-3.133,2.068-5.41,2.715-6.789Zm89.234-25.964c-3.363.648-6.768,1.462-10.214,2.4a160.327,160.327,0,0,0-42.841,19.175,83.461,83.461,0,0,1,5.159,12.972c.1.376.23.731.355,1.128L233.14,234.3Z" transform="translate(141.406 150.127)" fill="#302645"/>
      <path id="Path_21623" data-name="Path 21623" d="M73.67,110.324l4.6,38.037,7.457,61.7,3.112,26.11q10.559,6.924,17.024,10.632a163.857,163.857,0,0,0,15.645,7.917L98.966,68.109,66.61,51.9l7.06,58.424ZM102.6,302.411q-3.478-4.856-7.06-10.778l5.723,47.124,5.013,41.755c.856.773,1.671,1.567,2.444,2.4q6.392,6.642,15.29,24.543,8.648,17.107,15.9,24.021a38.277,38.277,0,0,0,3.279,2.82L130.4,328.542q-15.29-8.616-27.8-26.11h0Zm9.817,128.963,2.611,21.306,32.356,16.209,3.467-1.984c-1.358-.982-2.715-2.005-4.094-3.112-1.17-.919-2.339-1.88-3.53-2.924q-4.293-3.885-14.058-13.849-8.836-8.992-14.308-13.64C114.068,432.69,113.232,432.042,112.418,431.374Zm99.678-81c-.063.167-.146.313-.209.46-.648,1.4-1.546,3.655-2.715,6.81-.606,1.755-1.149,3.363-1.629,4.846a60.118,60.118,0,0,0,10.528,4.846q6.423,1.88,11.447-.5.157-6.047-6.141-10.674a53.7,53.7,0,0,0-11.3-5.765" transform="translate(72.506 51.851)" fill="#4a148c"/>
      <path id="Path_21624" data-name="Path 21624" d="M193.16,128.315a134.265,134.265,0,0,0-4.2-13.285,109.731,109.731,0,0,0-18.34,5.159,85.771,85.771,0,0,0-32.042,21.724,86.892,86.892,0,0,0-17.63,27.342h3.008q8.773.157,14.371,3.217a228.664,228.664,0,0,1,29.6-30.058,89.974,89.974,0,0,1,13.431-9.65,39.976,39.976,0,0,1,11.8-4.449M180.543,258.092a46.086,46.086,0,0,0-14.058-2.653c-.794,2.674-1.629,5.326-2.507,7.979a127,127,0,0,1-5.828,15.081,33.467,33.467,0,0,0,5.306,2.548c.5.188,1,.376,1.483.564a54.72,54.72,0,0,1,11.3,5.765q6.3,4.669,6.141,10.674-5.013,2.413-11.447.522a61.732,61.732,0,0,1-10.528-4.846c-.376-.188-.773-.4-1.17-.606-2.924-1.608-5.452-2.9-7.561-3.885a38.983,38.983,0,0,1-7.624,7.666q-9.149,6.956-23.52,8.543a95.058,95.058,0,0,1-10.632.46l2.089,17.63a60.77,60.77,0,0,1,17.483-5.118,58.352,58.352,0,0,1,26.674,2.4l50.3-29.034c-.125-.376-.251-.752-.355-1.128a82.869,82.869,0,0,0-5.159-12.992q-5.546-11.06-13.431-16.146a34.708,34.708,0,0,0-6.956-3.426Z" transform="translate(119.64 120.588)" fill="#ffeb3b"/>
      <path id="Path_21625" data-name="Path 21625" d="M404.918,118.413a4.163,4.163,0,0,1-.71-.1,21.659,21.659,0,0,0-4.031,0,33.312,33.312,0,0,0-11.906,3.426,71.826,71.826,0,0,0-26.277,21.473c-.647.856-1.274,1.713-1.9,2.611L346.035,180.89c-.919,2.632-1.9,5.243-2.924,7.875a257.469,257.469,0,0,1-32.564,59.74q-10.81,13.88-17.588,22.705-2.507,3.258-4.449,5.828c-.48.648-.961,1.274-1.42,1.88a198.768,198.768,0,0,0-11.4,16.857,120.776,120.776,0,0,0-6.141,11.614c-.23.543-.48,1.086-.71,1.629a31.351,31.351,0,0,0-2.757,10.841,15.7,15.7,0,0,0,.668,5.306,16.083,16.083,0,0,0,7.875,9.149,24.906,24.906,0,0,0,12.324,3.112q11,.063,22.434-7.311,8.4-5.42,18.716-16.209,25.034-26.256,51.364-64.4,20.742-30.3,30.058-53.829,12.47-31.332,8.9-58.779-1.473-11.4-7-15.687a13.986,13.986,0,0,0-6.5-2.82M253.626,273.048a50.394,50.394,0,0,0-1.065,9.191q-.063,7.927,3.572,13.076a29.961,29.961,0,0,0,7.457-.418c0-.23.042-.439.042-.606.063-.689.209-2.862.418-6.538q.282-7.52.313-13.744a156.321,156.321,0,0,0-.773-17.233,85.274,85.274,0,0,0-1.8-10.486,177.485,177.485,0,0,0-7.06,21.765c-.439,1.734-.815,3.4-1.128,4.95Z" transform="translate(274.969 124.055)" fill="#141f40"/>
      <path id="Path_21626" data-name="Path 21626" d="M299.021,45.541a13.52,13.52,0,0,0-2.757-.042,16.725,16.725,0,0,0-9.358,4.136,31.344,31.344,0,0,0-2.715,2.548,27.569,27.569,0,0,0-5.118,8.585,42.352,42.352,0,0,0-2.3,10.528,59.759,59.759,0,0,0-.042,8.648,135.108,135.108,0,0,0,3.112,19.53c.418,1.775.815,3.384,1.232,4.846a56.61,56.61,0,0,0,2.151,6.6,24.8,24.8,0,0,0,6.6,9.5,15.69,15.69,0,0,0,2.862,1.943,26.325,26.325,0,0,0,7.812,2.9,80.427,80.427,0,0,0,11.76,1.274,7.561,7.561,0,0,0,.982.042q6.956-4.48,6.5-13.494c-.042-.46-.084-.919-.146-1.379-.5-4.658-1.024-10.089-1.587-16.251-.251-2.695-.5-5.535-.773-8.543-.146-1.8-.272-3.488-.418-5.055q-.533-6.235-.815-9.65c-.1-1.483-.209-2.569-.251-3.279a35.959,35.959,0,0,0-2.047-10.131,21.778,21.778,0,0,0-5.619-8.731,16.039,16.039,0,0,0-9.044-4.554Zm-41.3,51.113a50.913,50.913,0,0,0-5.974-11.05,27.217,27.217,0,0,0-10.381-8.731q-.971-.439-2.005-.815a26.144,26.144,0,0,0-6.183-1.337,33.668,33.668,0,0,0-9.045.46,34.266,34.266,0,0,0-3.572.877A37.934,37.934,0,0,0,203.144,87a34.3,34.3,0,0,0-8.376,14.831,31.452,31.452,0,0,0-.919,6.851q-.157,9.368,5.013,20.2a67.167,67.167,0,0,0,8.376,14.1c.522.668,1.044,1.316,1.588,1.943q-3.384,7.394-6.893,14.726-4.1,8.648-8.334,17.17c-.5,1.024-1,2.026-1.525,3.008q-9.4,18.862-19.426,37.2a148.406,148.406,0,0,1-15.541,4.491q-.846,2.507-1.379,4.387a48.315,48.315,0,0,0-1.984,11.05,32.3,32.3,0,0,0,1.274,11.133,23.823,23.823,0,0,0,2.862,6.246q13.849-.282,21.932-3.676a48.638,48.638,0,0,0,12.324-7.917c2.444-2.089,6.016-5.535,10.674-10.381q14.037-14.695,23.708-26.068c1.984-2.339,3.822-4.6,5.514-6.747a22.546,22.546,0,0,0,.919,3.071,15.483,15.483,0,0,0,2.82,4.8.635.635,0,0,1,.1.146,170.439,170.439,0,0,0,20.8-14.768,164.278,164.278,0,0,0,20.909-20.846l-.209-1.734-29.39,7.624-.251-1.065a122.086,122.086,0,0,0,8.731-18.549,99.414,99.414,0,0,0,3.99-13.6l.042-.042a26.767,26.767,0,0,0,3.175-12.261c.125-4.407.084-8.313-.1-11.7a3.408,3.408,0,0,0-.042-.46,70.822,70.822,0,0,0-5.786-23.457Zm-53.2-80.148,1.734-3.217L66.62,93.939l32.356,16.209,113.172-65.38-7.624-28.262ZM157.3,153.428a3.343,3.343,0,0,1,.313,2.151,2.539,2.539,0,0,1-.606,1.232,8.508,8.508,0,0,1-1.984,1.232,20.964,20.964,0,0,1-7.562.606c-4.7-.313-7.29-.46-7.77-.46l-2.047.063h-.251a17.821,17.821,0,0,1-2.36-.063,5.538,5.538,0,0,1-4.2-1.984,4.954,4.954,0,0,1-.71-2.757,5.238,5.238,0,0,1,.919-2.757,12,12,0,0,1,4.136-3.99,7.034,7.034,0,0,1,.668-.355,33.732,33.732,0,0,1,6.329-.1,39.759,39.759,0,0,1,7.624,1.379q6.392,1.849,7.52,5.828Zm6.642,9.045a14.848,14.848,0,0,0-.042-7.165,19.1,19.1,0,0,0-1.8-4.449,22.558,22.558,0,0,0-8.648-8.731,37.854,37.854,0,0,0-11.342-4.094c-2.005-.418-4.679-.815-8.021-1.232l-10.131,5.87,7.979,66.194a47.945,47.945,0,0,0,10.423-1.42,23.614,23.614,0,0,0,12.011-7.165,10.705,10.705,0,0,0,2.653-6.141,7.248,7.248,0,0,0-2.548-5.473,11.469,11.469,0,0,0-1.838-1.337c-1.024.731-2.047,1.5-3.071,2.3-.418.313-.836.668-1.274,1.023-.188-3.823-.23-7.833-.146-12.011a47.136,47.136,0,0,0,6.329-3.948q7.833-5.608,9.462-12.261Zm268.6,62.915q-5.3-2.663-9.755-4.658-27.854-12.408-52.074-13.953a123.055,123.055,0,0,0-13.6-.1c.146.313.292.606.46.919a22.944,22.944,0,0,0,6.747,7.624,35.81,35.81,0,0,0,8.9,4.658c2.319.856,5.577,1.817,9.755,2.924q18.392,4.449,31.645,4.6a71.1,71.1,0,0,0,17.943-1.984Z" transform="translate(72.517 9.812)" fill="#f06191"/>
      <path id="Path_21627" data-name="Path 21627" d="M395.616,83.884a42.488,42.488,0,0,1-6.956-8.731c-3.718-2.026-8.773-4.93-15.123-8.689-.585-.355-1.17-.689-1.734-1.024a28.411,28.411,0,0,0-12.073,2.82A10.255,10.255,0,0,0,355.386,72a5.327,5.327,0,0,0-.71,2.757,4.332,4.332,0,0,0,.982,2.715,5.233,5.233,0,0,0,2.4,1.42,25.027,25.027,0,0,0,2.82.606,47.382,47.382,0,0,1,18.82,8.334,105.177,105.177,0,0,1,15.583,14.058c1.776,1.943,3.133,3.384,4.094,4.3a31.947,31.947,0,0,0,4.6,3.635,15.112,15.112,0,0,0,5.368,2.193,11.311,11.311,0,0,0,5.723-.146,8.667,8.667,0,0,0,4.6-3.467,6.84,6.84,0,0,0,1.17-5.473,8.659,8.659,0,0,0-3.572-5.013,42.291,42.291,0,0,0-5.87-3.321,58.2,58.2,0,0,1-15.75-10.674M100.8,355.7a47.476,47.476,0,0,0-20.032-1.8c-1.274.188-2.548.439-3.823.71a30.148,30.148,0,0,0-16.46,9.5q-7.144,8.021-4.6,16.564a17.421,17.421,0,0,0,5.368,8.167,27.044,27.044,0,0,0,8.689,5.118,56.5,56.5,0,0,0,9.567,2.653c2.172.48,5.473,1.149,9.859,2.047q18.611,4.387,35.468,17.943c.836.648,1.65,1.316,2.444,1.984q5.483,4.668,14.308,13.64,9.776,9.964,14.058,13.849c1.17,1.024,2.36,2.005,3.53,2.9,1.358,1.107,2.736,2.152,4.094,3.112q13.911,9.87,27.3,11.092a33.853,33.853,0,0,0,19.175-4.031q9.494-5.107,12.784-14.1,3.384-9.462-2.548-18.9a24.24,24.24,0,0,0-3.739-4.658l-13.076,7.562a76.475,76.475,0,0,1-22.789.355q-14.663-2.037-24.731-9.922a41.714,41.714,0,0,1-3.279-2.82q-7.269-6.893-15.9-24.021-8.9-17.891-15.29-24.544c-.794-.836-1.608-1.629-2.465-2.4a45.914,45.914,0,0,0-17.88-10.068Z" transform="translate(60.1 66.594)" fill="#ccdb38"/>
      <path id="Path_21628" data-name="Path 21628" d="M54.767,129.807a53.633,53.633,0,0,0-17.233-9.567,10.356,10.356,0,0,0-.919,2.3,12.417,12.417,0,0,0,1.128,7.875q.5,1.191,4.136,7.457,6.642,11.5,8.084,30.622c.209,3.008.439,8.46.71,16.4.209,6.956.5,12.366.919,16.251q3.885,38.476,31.75,73.443a202.173,202.173,0,0,0,17.943,19.635,46.814,46.814,0,0,1,20.032,1.8,45.913,45.913,0,0,1,17.88,10.068l-5.013-41.755A209.149,209.149,0,0,1,95.395,204.21q-6.862-17.8-10.277-26.632a178.593,178.593,0,0,0-11.969-25.922,79.015,79.015,0,0,0-18.4-21.87" transform="translate(39.586 126.26)" fill="#009687"/>
      <path id="Path_21629" data-name="Path 21629" d="M126.877,86.037a14.593,14.593,0,0,1,.042,7.165q-1.629,6.642-9.462,12.261a50.684,50.684,0,0,1-6.329,3.927c-.084,4.178-.042,8.188.146,12.011.439-.355.877-.71,1.274-1.023,1.023-.794,2.047-1.567,3.071-2.3a51.381,51.381,0,0,1,17.692-8.272,42.582,42.582,0,0,1,14.455-.773c1.9-.439,4.073-.836,6.538-1.17.794-.1,1.525-.23,2.256-.355q4.23-8.522,8.334-17.17a142.268,142.268,0,0,0-38.037-4.282Zm-6.287.251a3.214,3.214,0,0,0-.313-2.151q-1.128-3.979-7.52-5.828a39.186,39.186,0,0,0-7.624-1.379Q102.407,83.2,101.206,87c-.209.648-.418,1.3-.606,1.943l2.047-.042c.48,0,3.071.146,7.77.46a20.964,20.964,0,0,0,7.562-.606,7.724,7.724,0,0,0,1.984-1.232,2.453,2.453,0,0,0,.606-1.232M105.655,209.569c-.794-.063-1.546-.125-2.3-.146l11.614,95.939c.125,0,.23.042.355.042q2.695.313,9.462,1.692a58.7,58.7,0,0,0,5.974,1.065,6.22,6.22,0,0,0,1.065.042c.1-.125.209-.272.313-.4q4.7-7.112,6.956-10.674a52.79,52.79,0,0,0,5.828-11.509,25.914,25.914,0,0,0,1.42-12.428,30.112,30.112,0,0,0-1.943-7.06c-1.713-4.428-2.59-6.768-2.653-7a47.056,47.056,0,0,1-2.611-17.588q.345-9.149,9.358-27.593h-.063q-5.577-3.07-14.371-3.217h-3.008c-1.629.042-3.76.1-6.329.209a83.015,83.015,0,0,1-9.4-.1c-4.3-.648-7.52-1.065-9.65-1.274Z" transform="translate(109.515 79.104)" fill="#212938"/>
      <path id="Path_21630" data-name="Path 21630" d="M35.2,85.8a10.605,10.605,0,0,0-4.031,4.762,9.642,9.642,0,0,0,.313,7.729,14.814,14.814,0,0,0,5.159,6.329,28.328,28.328,0,0,0,7.311,3.363c1.734.585,4.386,1.337,7.917,2.256a94.261,94.261,0,0,1,32.5,16.042A96.367,96.367,0,0,1,108.7,153.061q1.723,2.82,5.055,8.481a44.271,44.271,0,0,0,5.932,7.708,21.888,21.888,0,0,0,5.368,3.885l-7.457-61.7A155.935,155.935,0,0,0,35.2,85.78Z" transform="translate(33.191 88.74)" fill="#03a8f5"/>
      <path id="Path_21631" data-name="Path 21631" d="M195.877,7.61l-6.5,11.864-1.734,3.217,7.624,28.262L82.1,116.332l22.538,186.614,8.9,73.8L126.32,482.5q10.058,7.864,24.731,9.922a76.464,76.464,0,0,0,22.789-.355l13.076-7.561,36.7-21.2,27.342-15.791,59.176-34.152-5.118-42.215-7.52-62.163-2.9-24.439q-7.9,1.379-15.75,3.071c-1.608.355-3.238.71-4.867,1.065l2.757,22.956,7.457,61.432.919,7.708-48.46,27.948-50.3,29.034L144.806,461.78,142.2,440.474l-2.089-17.629-5.055-42.006L123.458,284.9c.752.021,1.5.084,2.3.146,2.151.209,5.368.627,9.65,1.274a83.012,83.012,0,0,0,9.4.1c2.59-.1,4.7-.167,6.35-.209a89.156,89.156,0,0,1,49.672-49.066,109.725,109.725,0,0,1,18.34-5.159,103.891,103.891,0,0,0-6.642-14.559c2.172-1.191,4.3-2.4,6.392-3.676a.374.374,0,0,0-.1-.146,15.9,15.9,0,0,1-2.82-4.8,22.552,22.552,0,0,1-.919-3.071c-1.692,2.151-3.53,4.407-5.514,6.747q-9.682,11.374-23.708,26.068c-4.679,4.846-8.23,8.293-10.674,10.381a48.067,48.067,0,0,1-12.324,7.917q-8.052,3.384-21.932,3.676a23.519,23.519,0,0,1-2.862-6.246,32.362,32.362,0,0,1-1.274-11.133,48.52,48.52,0,0,1,1.984-11.05q.533-1.88,1.379-4.387a148.4,148.4,0,0,0,15.541-4.491q10.026-18.329,19.426-37.2a50.382,50.382,0,0,0-7.269-1.483,42.059,42.059,0,0,0-14.455.773,51.381,51.381,0,0,0-17.692,8.272,9.618,9.618,0,0,1,1.838,1.337,7.178,7.178,0,0,1,2.548,5.473,10.962,10.962,0,0,1-2.653,6.141,23.757,23.757,0,0,1-12.011,7.165A45.5,45.5,0,0,1,115,215.112l-7.979-66.194,10.131-5.87,16.606-9.567,44.053-25.463a34.412,34.412,0,0,1,8.376-14.831,38.148,38.148,0,0,1,17.421-10.945q1.755-.5,3.572-.877a33.667,33.667,0,0,1,9.045-.46L195.773,7.61Zm82.132,164.264-15.436,3.99c-.606.752-1.253,1.5-1.88,2.256l6.705,55.353q11.217-5.107,20.032-8.543l-6.705-55.771-2.715,2.715Z" transform="translate(89.372 3.628)" fill="#e3f2fc"/>
      <path id="Path_21632" data-name="Path 21632" d="M109.065,76.986a32.028,32.028,0,0,0-6.329.1c-.209.1-.418.23-.668.355a12,12,0,0,0-4.136,3.99,5.239,5.239,0,0,0-.919,2.757,4.954,4.954,0,0,0,.71,2.757,5.552,5.552,0,0,0,4.2,2.005,17.742,17.742,0,0,0,2.36.042h.251c.209-.648.4-1.3.606-1.943q1.191-3.791,3.927-10.068m105.8,31.583,9.3-16.606-.815-3.008a126.226,126.226,0,0,1-8.731,18.549Z" transform="translate(105.603 79.048)" fill="#fff"/>
    </g>
    <path id="Path_21633" data-name="Path 21633" d="M162.746,92.734l-9.316,16.627,29.39-7.624,2.11-.522,15.436-3.969,2.695-2.715L221.316,76.17Z" transform="translate(167.046 82.935)" fill="#8f24ab"/>
    <g id="Group_4948" data-name="Group 4948" transform="translate(59.623)">
      <path id="Path_21634" data-name="Path 21634" d="M173.637,85.479c-.543-.627-1.065-1.274-1.588-1.943-1.8.23-3.635.355-5.514.418a72.635,72.635,0,0,1-22.183-3.112,123.535,123.535,0,0,1-20.491-8.481c-2.256-1.149-5.034-2.632-8.334-4.491L98.92,77.437c3.342.4,6.016.815,8.021,1.232a37.854,37.854,0,0,1,11.342,4.094,22.842,22.842,0,0,1,8.648,8.731,20.055,20.055,0,0,1,1.8,4.449,142.363,142.363,0,0,1,38.037,4.282q3.509-7.332,6.893-14.726" transform="translate(48.072 73.897)" fill="#384aab"/>
      <path id="Path_21635" data-name="Path 21635" d="M172.769,52.6a6.8,6.8,0,0,1,0,4.8,5.38,5.38,0,0,1-3.217,3.112,5.138,5.138,0,0,1-4.387-.355,6.594,6.594,0,0,1-3.071-3.676,6.3,6.3,0,0,1,0-4.7,5.23,5.23,0,0,1,6.684-3.2,6.326,6.326,0,0,1,.94.439A6.463,6.463,0,0,1,172.79,52.6Zm-9-26.215a6.463,6.463,0,0,1,3.071,3.572,6.8,6.8,0,0,1,0,4.8,5.326,5.326,0,0,1-3.217,3.112,5.138,5.138,0,0,1-4.387-.355,6.594,6.594,0,0,1-3.071-3.676,6.3,6.3,0,0,1,0-4.7,5.23,5.23,0,0,1,6.684-3.2,3.858,3.858,0,0,1,.94.439M208.279,0,175.422,7.269l-16,3.572L136.57,15.9l20.449,73.3a25.149,25.149,0,0,1,6.183,1.337c.668.251,1.337.522,1.984.815a27.561,27.561,0,0,1,10.381,8.731,50.436,50.436,0,0,1,5.974,11.05,71.341,71.341,0,0,1,5.786,23.457,3.421,3.421,0,0,1,.042.46c.188,3.384.23,7.29.1,11.7A26.194,26.194,0,0,1,184.3,159l-.042.042a96.546,96.546,0,0,1-3.99,13.6l.815,3.008,58.57-16.564-3.572-18.089a80.777,80.777,0,0,1-11.76-1.274,26.693,26.693,0,0,1-7.812-2.9,16.821,16.821,0,0,1-2.862-1.943,24.8,24.8,0,0,1-6.6-9.5,55.348,55.348,0,0,1-2.151-6.6c-.418-1.483-.815-3.091-1.232-4.867a132.247,132.247,0,0,1-3.112-19.53,62.887,62.887,0,0,1,.042-8.648,42.35,42.35,0,0,1,2.3-10.528,26.791,26.791,0,0,1,5.118-8.585,24.065,24.065,0,0,1,2.715-2.548,16.725,16.725,0,0,1,9.358-4.136Z" transform="translate(89.065)" fill="#ffe082"/>
      <path id="Path_21636" data-name="Path 21636" d="M152.442,16.165a2.672,2.672,0,0,0-2.527,1.859,3.824,3.824,0,0,0,0,2.883,4.033,4.033,0,0,0,1.922,2.339,2.535,2.535,0,0,0,2.256.188,2.806,2.806,0,0,0,1.734-1.671,4.321,4.321,0,0,0-.021-2.987,3.858,3.858,0,0,0-1.859-2.193,3.228,3.228,0,0,0-1.525-.439m.752,12.575a7.83,7.83,0,0,1-3.8-1,9.058,9.058,0,0,1-4.261-5.076,8.685,8.685,0,0,1,.042-6.517,7.8,7.8,0,0,1,4.6-4.6,7.922,7.922,0,0,1,6.622.564,8.888,8.888,0,0,1,4.24,4.93v.042a9.389,9.389,0,0,1,0,6.538.159.159,0,0,1-.042.1,8.042,8.042,0,0,1-4.7,4.533,7.759,7.759,0,0,1-2.674.48m5.18,10.068a2.691,2.691,0,0,0-2.527,1.859,3.825,3.825,0,0,0,0,2.883,4.033,4.033,0,0,0,1.922,2.339,2.535,2.535,0,0,0,2.256.188,2.857,2.857,0,0,0,1.734-1.671,4.321,4.321,0,0,0-.021-2.987,3.858,3.858,0,0,0-1.859-2.193,3.007,3.007,0,0,0-1.525-.439M159.1,51.34a7.831,7.831,0,0,1-3.8-1,9.058,9.058,0,0,1-4.261-5.076,8.685,8.685,0,0,1,.042-6.517,7.774,7.774,0,0,1,10.005-4.6,6.212,6.212,0,0,1,1.191.564,8.888,8.888,0,0,1,4.24,4.93v.042a9.508,9.508,0,0,1,0,6.538.159.159,0,0,1-.042.1,8.041,8.041,0,0,1-4.7,4.533,7.759,7.759,0,0,1-2.674.48" transform="translate(97.695 12.034)" fill="#fff"/>
      <path id="Path_21637" data-name="Path 21637" d="M93.55,45.78a20.376,20.376,0,0,0-9.3,1.943q-3.885,2.005-3.885,4.762c0,1.838,1.3,3.447,3.885,4.742a19.841,19.841,0,0,0,9.3,2.005,19.841,19.841,0,0,0,9.3-2.005c2.59-1.3,3.885-2.883,3.885-4.742s-1.3-3.426-3.885-4.762a20.376,20.376,0,0,0-9.3-1.943" transform="translate(27.874 49.846)" fill="#384aab"/>
      <path id="Path_21638" data-name="Path 21638" d="M102.488,121.186a2.551,2.551,0,0,1-.585-5.034c4.407-1.065,10.214-2.444,17.254-4.073.355-.084.689-.167,1.044-.251a2.558,2.558,0,1,1,1.212,4.971c-.355.084-.731.167-1.086.251-7.018,1.629-12.8,2.987-17.212,4.052a2.826,2.826,0,0,1-.606.084m92.116,73.986a2.55,2.55,0,0,1-2.548-2.569,2.757,2.757,0,0,1,.125-.815c.9-2.674,1.838-5.723,2.778-9.065,2.319-7.415,3.969-13.18,4.93-17.233a93.92,93.92,0,0,0,2.632-17.212,2.562,2.562,0,0,1,5.118.251h0a100.543,100.543,0,0,1-2.778,18.173c-1,4.157-2.674,10.047-4.992,17.5-.94,3.363-1.9,6.5-2.841,9.253a2.541,2.541,0,0,1-2.423,1.734M191.91,336.918a2.55,2.55,0,0,1-1.358-4.721l30.518-18.966a2.547,2.547,0,1,1,2.695,4.324l-30.517,18.966a2.537,2.537,0,0,1-1.337.376" transform="translate(49.182 121.679)" fill="#fad675"/>
      <path id="Path_21639" data-name="Path 21639" d="M178.633,57.21a2.546,2.546,0,0,1-2.465-1.9L169.944,32.1a2.559,2.559,0,0,1,4.93-1.379v.042L181.1,53.973a2.573,2.573,0,0,1-1.8,3.133,2.347,2.347,0,0,1-.668.084ZM106.778,240.064a2.548,2.548,0,0,1-.021-5.1c2.381-.042,4.971-.063,7.791-.084.794,0,1.567,0,2.319-.021a2.549,2.549,0,1,1,.1,5.1c-.794,0-1.587.021-2.4.021-2.8,0-5.368.042-7.729.084H106.8Zm46.768,41.525a2.552,2.552,0,0,1-2.527-2.256,35.489,35.489,0,0,1,2.757-18.423,2.559,2.559,0,1,1,4.7,2.026,30.637,30.637,0,0,0-2.36,15.812,2.559,2.559,0,0,1-2.235,2.841h-.292Zm-9.859,17.128a2.537,2.537,0,0,1-1.964-4.157,91.441,91.441,0,0,1,9.964-9.609,56.8,56.8,0,0,0,8.836-9.149,2.552,2.552,0,1,1,4.2,2.9l-.021.021A60.524,60.524,0,0,1,155.03,288.8a90.532,90.532,0,0,0-9.358,9,2.515,2.515,0,0,1-1.984.94m257.863,61.244a1.791,1.791,0,0,1-.46-.042,2.56,2.56,0,0,1-2.068-2.966,158.227,158.227,0,0,1,22.643-57.714c2.82-4.428,5.849-8.752,9.044-12.825-30.141-20.951-53.891-37.724-70.643-49.86a203.954,203.954,0,0,0-17.943-12.052,56.644,56.644,0,0,0-19.259-7.06c-6.559-.961-13.974-.4-22.037,1.692a189.4,189.4,0,0,0-22,7.854l-62.2,25.463a2.562,2.562,0,1,1-1.943-4.742l62.2-25.463a195.426,195.426,0,0,1,22.664-8.084c8.752-2.256,16.857-2.862,24.084-1.8a61.189,61.189,0,0,1,21.013,7.666A207.617,207.617,0,0,1,363.1,232.44c16.773,12.157,40.586,28.972,70.852,50.006a155.325,155.325,0,0,1,30.246-27.906,2.55,2.55,0,0,1,2.924,4.178,150.857,150.857,0,0,0-30.706,28.763h0A157.081,157.081,0,0,0,426.011,302a153.32,153.32,0,0,0-21.932,55.855,2.553,2.553,0,0,1-2.507,2.11M117.536,382.187a2.559,2.559,0,0,1-.063-5.118,30.757,30.757,0,0,0,18.57-7.06,30.153,30.153,0,0,0,10.966-16.564,37.19,37.19,0,0,0,1.107-6.935c.146-1.483.251-3.948.355-7.353.334-13.577.94-27.823,1.8-42.3a2.553,2.553,0,0,1,5.1.292c-.836,14.434-1.441,28.6-1.775,42.131-.1,3.572-.23,6.058-.376,7.624a40.939,40.939,0,0,1-1.253,7.791,35.166,35.166,0,0,1-12.742,19.28,35.612,35.612,0,0,1-21.6,8.167h-.084" transform="translate(53.853 31.418)" fill="#4fc2f7"/>
      <path id="Path_21640" data-name="Path 21640" d="M233.128,31.266a2.547,2.547,0,0,1-2.465-1.922l-1.629-6.329a2.556,2.556,0,1,1,4.95-1.274l1.629,6.329a2.566,2.566,0,0,1-1.838,3.112,2.2,2.2,0,0,1-.648.084m6.287,24.23a2.547,2.547,0,0,1-2.465-1.922L233.066,38.6a2.559,2.559,0,0,1,4.951-1.3L241.9,52.28a2.567,2.567,0,0,1-1.838,3.112,2.2,2.2,0,0,1-.648.084m39.1,99.511a2.555,2.555,0,0,1-.689-5.013l47.374-13.6a2.552,2.552,0,0,1,1.4,4.909l-47.374,13.6a2.653,2.653,0,0,1-.71.1M89.147,183.457a2.56,2.56,0,0,1-1.817-.752,53.454,53.454,0,0,0-33.3-15.771,2.551,2.551,0,1,1,.522-5.076,58.429,58.429,0,0,1,36.408,17.254,2.566,2.566,0,0,1,0,3.614,2.527,2.527,0,0,1-1.8.731m230.1,20.387a2.535,2.535,0,0,1-2.527-2.256l-4.95-41.254a2.546,2.546,0,1,1,5.055-.606h0l4.95,41.254a2.559,2.559,0,0,1-2.235,2.841h-.313m316.078,41.045h-.042l-38.392-.606a2.549,2.549,0,0,1,.083-5.1l38.392.606a2.549,2.549,0,0,1-.042,5.1m-4.386,27.447H630.9l-48.648-.668a2.559,2.559,0,0,1,0-5.118h.063l48.669.668a2.559,2.559,0,0,1-.021,5.118Zm-476.227,2.047a2.562,2.562,0,0,1-2.548-2.319l-6.183-65.568a2.549,2.549,0,1,1,5.076-.48l6.183,65.568a2.553,2.553,0,0,1-2.3,2.778h-.251M567.63,304.859a2.559,2.559,0,0,1-.021-5.118l53.2-.418h0a2.548,2.548,0,0,1,.021,5.1l-53.2.418h-.021Zm32.1,32.293h-.1l-48.648-1.943a2.561,2.561,0,0,1,.188-5.118h0l48.648,1.943a2.549,2.549,0,0,1-.1,5.1M114.9,371.22a2.589,2.589,0,0,1-1.671-.627,113.818,113.818,0,0,1-18.089-19.927,111.782,111.782,0,0,1-12.867-23.645c-1.608-3.969-3.572-9.629-5.828-16.773-2.527-8.1-4.366-13.723-5.431-16.669-4.554-12.408-10.3-21.724-17.066-27.677a2.56,2.56,0,0,1,3.384-3.843h0c7.415,6.517,13.64,16.543,18.507,29.766,1.107,3.029,2.945,8.71,5.514,16.878,2.214,7.018,4.136,12.554,5.7,16.418A106.5,106.5,0,0,0,99.34,347.7a109.043,109.043,0,0,0,17.274,19.029,2.552,2.552,0,0,1,.251,3.614,2.526,2.526,0,0,1-1.922.877Zm465.783,1.8h0l-53.306-.251a2.559,2.559,0,0,1,.021-5.118h0l53.306.251a2.559,2.559,0,1,1-.021,5.118m-71.813,33.316a2.559,2.559,0,0,1-.021-5.118l47.646-.5h.021a2.559,2.559,0,0,1,.021,5.118l-47.625.5h-.021ZM494.25,428.516a2.548,2.548,0,0,1-.021-5.1l36.7-.313h.021a2.548,2.548,0,0,1,.021,5.1l-36.7.313Zm-274.323,45.16a2.577,2.577,0,0,1-2.569-2.548,2.544,2.544,0,0,1,1.274-2.214l121.778-70.33-4.888-40.544L328,295.918a2.556,2.556,0,0,1,5.076-.606l7.52,62.121,5.076,42.215a2.577,2.577,0,0,1-1.253,2.527l-123.24,71.166a2.528,2.528,0,0,1-1.274.334" transform="translate(-3.295 21.58)" fill="#7d57c2"/>
      <path id="Path_21641" data-name="Path 21641" d="M86.035,196.633a2.55,2.55,0,0,1-2.444-1.838c-4.3-14.851-10.528-27.071-18.507-36.366a61.329,61.329,0,0,0-15.541-13.055,50.09,50.09,0,0,0-18.778-6.517,2.549,2.549,0,0,1,.668-5.055,55.227,55.227,0,0,1,20.679,7.165A66.046,66.046,0,0,1,68.97,155.108c8.439,9.838,15.019,22.726,19.53,38.267a2.568,2.568,0,0,1-1.755,3.175,2.653,2.653,0,0,1-.71.1ZM432.422,266a2.608,2.608,0,0,1-2.005-.961c-13.118-16.439-32.69-26.089-58.173-28.7a2.551,2.551,0,1,1,.522-5.076c26.9,2.757,47.625,13.034,61.641,30.6a2.555,2.555,0,0,1-.4,3.593,2.629,2.629,0,0,1-1.587.564" transform="translate(-28.549 145.66)" fill="#ed407a"/>
      <path id="Path_21642" data-name="Path 21642" d="M81.855,57.49a2.551,2.551,0,0,1-2.465-1.859,6.693,6.693,0,0,1-.251-1.817c0-1.963.919-4.783,5.264-7.018A22.95,22.95,0,0,1,94.869,44.56a23.162,23.162,0,0,1,10.465,2.214,9.862,9.862,0,0,1,4.574,4.136,2.56,2.56,0,0,1-4.574,2.3,4.942,4.942,0,0,0-2.339-1.9,17.909,17.909,0,0,0-8.146-1.65A17.962,17.962,0,0,0,86.7,51.328c-.919.48-2.486,1.441-2.486,2.465a1.067,1.067,0,0,0,.063.439A2.565,2.565,0,0,1,82.5,57.385a2.627,2.627,0,0,1-.689.1Z" transform="translate(26.535 48.517)" fill="#f29c9e"/>
      <path id="Path_21643" data-name="Path 21643" d="M246.706,47.477a2.547,2.547,0,0,1-1.316-4.742c12.011-7.165,22.831-8.564,32.188-4.157a2.56,2.56,0,0,1-2.172,4.637c-7.833-3.7-16.794-2.4-27.405,3.927a2.588,2.588,0,0,1-1.316.355h0Zm5.473,34.236a2.545,2.545,0,0,1-2.548-2.548,2.489,2.489,0,0,1,.668-1.713c8.4-9.274,18.82-11.509,31-6.642a2.56,2.56,0,0,1-1.88,4.762h0c-10.131-4.052-18.423-2.3-25.316,5.326a2.515,2.515,0,0,1-1.9.836ZM180.365,91.53a2.55,2.55,0,0,1-2.548-2.569,2.515,2.515,0,0,1,.313-1.232,59.308,59.308,0,0,1,18.152-20.387c6.726-4.825,13.013-6.5,18.632-4.971a2.554,2.554,0,1,1-1.337,4.93c-4.073-1.107-8.9.313-14.35,4.219A54.289,54.289,0,0,0,182.6,90.193a2.548,2.548,0,0,1-2.235,1.316Zm18.549,25.964a2.55,2.55,0,0,1-2.548-2.569,2.448,2.448,0,0,1,.272-1.149,53.631,53.631,0,0,1,14.5-18.131,23.865,23.865,0,0,1,3.781-2.444c1.817-.961,5.347-2.11,10.778-3.509a2.556,2.556,0,0,1,1.274,4.95h0c-6.183,1.587-8.689,2.569-9.713,3.112a18.472,18.472,0,0,0-2.966,1.922,48.691,48.691,0,0,0-13.076,16.4,2.589,2.589,0,0,1-2.3,1.42ZM197.6,135.186c-8.23,0-15.791-3.593-22.517-10.736a2.556,2.556,0,1,1,3.718-3.509c7.332,7.77,15.353,10.528,24.523,8.46a2.549,2.549,0,1,1,1.128,4.971,31.292,31.292,0,0,1-6.83.794Zm-94.811,24.752a21.313,21.313,0,0,1-2.82-.188,2.534,2.534,0,0,1-2.172-2.883,2.564,2.564,0,0,1,2.883-2.193h0a20.057,20.057,0,0,0,9.692-1.358,2.548,2.548,0,1,1,1.755,4.783,27.5,27.5,0,0,1-9.358,1.817" transform="translate(46.816 39.271)" fill="#870d4f"/>
      <path id="Path_21644" data-name="Path 21644" d="M169.3,90.778a2.56,2.56,0,0,1-.648-5.034l12.261-3.279a2.561,2.561,0,0,1,1.316,4.95l-12.261,3.279a2.347,2.347,0,0,1-.668.084" transform="translate(121.925 89.695)" fill="#5e458c"/>
      <path id="Path_21645" data-name="Path 21645" d="M261.544,184.79a19.61,19.61,0,0,0,.564,6.141c4.47,1.629,8.063.606,10.778-3.112a30.351,30.351,0,0,0,5.013-10.945,10.636,10.636,0,0,0-1.838-8.794,19.78,19.78,0,0,0-9.4,5.41,17.761,17.761,0,0,0-5.118,11.3" transform="translate(225.088 183.007)" fill="#ffc929"/>
      <path id="Path_21646" data-name="Path 21646" d="M163.169,109.773c-11.3,0-21.912-7.708-31.6-22.977a2.558,2.558,0,0,1,4.324-2.736h0c10.152,16,20.575,22.58,31.833,20.073a2.557,2.557,0,0,1,1.107,4.992,25.831,25.831,0,0,1-5.661.627M437.43,261.295a2.552,2.552,0,0,1-2.548-2.444,247.7,247.7,0,0,1,.982-34.549,2.585,2.585,0,0,1,2.8-2.3,2.554,2.554,0,0,1,2.277,2.8,240.832,240.832,0,0,0-.961,33.839,2.535,2.535,0,0,1-2.444,2.653ZM334.786,282.977a2.453,2.453,0,0,1-1.253-.334c-.585-.334-2.757-1.671-14.872-9.609a84.317,84.317,0,0,0-14.851-8.042,50,50,0,0,0-26.883-2.778,2.56,2.56,0,0,1-.815-5.055,54.921,54.921,0,0,1,29.578,3.071,87.1,87.1,0,0,1,15.791,8.522c11.05,7.227,14.016,9.107,14.58,9.421a2.566,2.566,0,0,1,.982,3.488,2.488,2.488,0,0,1-2.235,1.3m71.4-1.3c2.715.627,4.762-.209,6.538-2.632a27.6,27.6,0,0,0,4.574-10.005,7.778,7.778,0,0,0-.543-5.18,16.992,16.992,0,0,0-6.392,4.178,15.054,15.054,0,0,0-4.387,9.692,17.64,17.64,0,0,0,.209,3.927Zm1.692,5.327a13.78,13.78,0,0,1-4.762-.919,2.587,2.587,0,0,1-1.608-1.775,22.105,22.105,0,0,1-.627-6.935,20.234,20.234,0,0,1,5.828-12.909,22.514,22.514,0,0,1,10.611-6.12,2.559,2.559,0,0,1,2.715,1.024,13.137,13.137,0,0,1,2.235,10.82,32.8,32.8,0,0,1-5.431,11.864c-2.4,3.279-5.452,4.93-8.961,4.93m-6.956,41.421a2.55,2.55,0,0,1-2.548-2.569,2.273,2.273,0,0,1,.146-.836,48.275,48.275,0,0,1,9.253-15.123c2.465-2.9,6.454-7.144,11.864-12.6a172.04,172.04,0,0,0,16.71-23.457,350.82,350.82,0,0,0,18.611-35.677c3.071-6.747,6.2-14.016,9.316-21.577,15.457-38.058,29.014-57.547,41.421-59.573a2.55,2.55,0,1,1,.815,5.034c-7.123,1.149-19.4,11.885-37.494,56.46-3.133,7.624-6.287,14.956-9.4,21.765a354.563,354.563,0,0,1-18.9,36.2,176.883,176.883,0,0,1-17.274,24.209l-.125.125c-5.347,5.389-9.274,9.546-11.676,12.366-4.031,4.721-6.851,9.253-8.334,13.515a2.543,2.543,0,0,1-2.4,1.713Zm-11.447,38.121a30.791,30.791,0,0,1-5.18-.439c-8-1.274-15.708-5.953-22.893-13.891a129.979,129.979,0,0,1-8.522-10.862c-3.467-4.971-6.1-8.689-7.812-11.029a133.779,133.779,0,0,0-28.6-29.055,121.391,121.391,0,0,0-36.053-18.674,111.964,111.964,0,0,0-40.189-5.138,104.939,104.939,0,0,0-39.228,9.734,2.56,2.56,0,0,1-2.172-4.637A110.746,110.746,0,0,1,239.975,272.3a116.808,116.808,0,0,1,42.006,5.389,127.508,127.508,0,0,1,37.557,19.447,138.643,138.643,0,0,1,29.682,30.142c1.734,2.381,4.3,6.016,7.833,11.071a118.756,118.756,0,0,0,8.146,10.381c6.371,7.039,13.076,11.175,19.927,12.261,6.642,1.128,13.786-.376,21.264-4.47,5.326-2.883,11.864-7.791,19.447-14.58a2.559,2.559,0,0,1,3.4,3.823c-7.875,7.06-14.747,12.2-20.428,15.269-6.642,3.635-13.139,5.473-19.363,5.473" transform="translate(83.187 90.231)" fill="#ffc929"/>
      <path id="Path_21647" data-name="Path 21647" d="M79.727,83.525a47.583,47.583,0,0,1-15.165-2.151A47.82,47.82,0,0,1,52.8,75.441c-2.36-1.587-5.723-4.136-10.256-7.791a2.554,2.554,0,0,1,3.217-3.969c4.345,3.509,7.687,6.058,9.88,7.541A42.8,42.8,0,0,0,66.15,76.527c5.076,1.692,11.53,2.256,19.217,1.671a2.581,2.581,0,0,1,2.757,2.339,2.549,2.549,0,0,1-2.339,2.736h0c-2.089.167-4.094.23-6.016.23m384.069,74.4a2.157,2.157,0,0,1-.627-.084c-6.956-1.755-14.267-5.807-21.765-12.073a.366.366,0,0,0-.1-.084c-7.979-7.436-14.079-12.992-18.131-16.5a126.637,126.637,0,0,0-59.28-29.076,2.562,2.562,0,0,1,.961-5.034,131.713,131.713,0,0,1,61.662,30.225c4.073,3.53,10.193,9.107,18.194,16.564,6.872,5.723,13.494,9.421,19.677,10.987a2.555,2.555,0,0,1-.627,5.034M109.827,377.086a2.972,2.972,0,0,1-.94-.167,150.279,150.279,0,0,1-20.282-9.88c-11.614-6.726-20.429-14.287-26.215-22.455-1.922-2.674-5.577-9.191-11.175-19.927-4.094-7.9-8.188-13.682-12.2-17.212a2.561,2.561,0,0,1,3.363-3.864h0c4.47,3.948,8.961,10.235,13.347,18.674,5.41,10.36,9.045,16.857,10.8,19.3,5.368,7.582,13.64,14.643,24.606,21.013a147.6,147.6,0,0,0,19.593,9.546,2.566,2.566,0,0,1-.94,4.95Zm128.8,85.662h-.084a43.431,43.431,0,0,1-14.58-3.4.623.623,0,0,1-.167-.084c-8.773-4.324-15.436-7.457-19.76-9.3a69.859,69.859,0,0,0-34.194-5.682,2.558,2.558,0,0,1-.439-5.1,75.338,75.338,0,0,1,36.659,6.078c4.366,1.859,11.071,5.013,19.906,9.358a38.19,38.19,0,0,0,12.742,3.008,2.549,2.549,0,0,1-.084,5.1Z" transform="translate(-18.105 68.708)" fill="#03a8f5"/>
      <path id="Path_21648" data-name="Path 21648" d="M137.828,278.356a2.558,2.558,0,0,1-.439-5.076c.522-.084,1.023-.209,1.5-.313a22.451,22.451,0,0,0,10.778-6.58,31.8,31.8,0,0,0,6.851-11.468,48.6,48.6,0,0,0,2.527-13.368c.1-1.984.1-4.261.042-6.789a2.56,2.56,0,1,1,5.118-.146h0c.063,2.653.042,5.076-.063,7.206a53.172,53.172,0,0,1-2.8,14.789,37.087,37.087,0,0,1-7.958,13.264,27.626,27.626,0,0,1-13.243,8.021c-.606.146-1.232.292-1.88.4a3.1,3.1,0,0,1-.439.042" transform="translate(87.661 252.744)" fill="#0096a6"/>
      <path id="Path_21649" data-name="Path 21649" d="M257.662,116.053a3.106,3.106,0,0,1-.752-.1,143.787,143.787,0,0,0-16.146-4.073,77.433,77.433,0,0,0-9.045-1.086,2.553,2.553,0,1,1,.292-5.1,78.52,78.52,0,0,1,9.65,1.17,140.4,140.4,0,0,1,16.752,4.219,2.552,2.552,0,0,1-.752,4.992h0Zm133.809,84.43a2.444,2.444,0,0,1-1.023-.23c-3.572-1.587-7.666-3.279-12.178-5.076a151.2,151.2,0,0,0-15-5.222,38.913,38.913,0,0,0-14.893-1.128,2.552,2.552,0,0,1-.71-5.055A43.784,43.784,0,0,1,364.546,185a154.952,154.952,0,0,1,15.6,5.41c4.575,1.817,8.731,3.551,12.366,5.159a2.548,2.548,0,0,1,1.3,3.384A2.59,2.59,0,0,1,391.471,200.482Zm25.964,15.75a2.642,2.642,0,0,1-1.734-.668,62.465,62.465,0,0,0-8.293-6.371,2.552,2.552,0,1,1,2.778-4.282,68.463,68.463,0,0,1,8.982,6.914,2.549,2.549,0,0,1,.146,3.614,2.58,2.58,0,0,1-1.88.835m141.12,4.533a2.56,2.56,0,0,1-.46-5.076c.919-.167,1.984-.376,3.238-.585h.1a86.379,86.379,0,0,0,10.8-2.068,45.4,45.4,0,0,0,16.5-9.17,2.573,2.573,0,0,1,3.614.251,2.546,2.546,0,0,1-.251,3.593,50.42,50.42,0,0,1-18.4,10.235,92.985,92.985,0,0,1-11.488,2.235c-1.211.23-2.256.418-3.154.585a3.428,3.428,0,0,1-.48.042M294.885,231a2.55,2.55,0,0,1-1.107-4.846c2.862-1.379,5.013-2.339,6.58-2.945a30.987,30.987,0,0,1,7.332-1.984,49.854,49.854,0,0,1,6.371-.272,2.55,2.55,0,0,1,2.569,2.548,2.576,2.576,0,0,1-2.548,2.569h-.021a47.325,47.325,0,0,0-5.7.23,26.993,26.993,0,0,0-6.141,1.671c-1.441.564-3.53,1.483-6.225,2.8a2.594,2.594,0,0,1-1.107.251m-163.3,8.585a2.646,2.646,0,0,1-.982-.188,32.856,32.856,0,0,1-8.522-5.744A66.351,66.351,0,0,0,115,227.992a30.848,30.848,0,0,0-8.1-3.551,93.108,93.108,0,0,0-9.233-1.984,2.555,2.555,0,0,1,.877-5.034,98.148,98.148,0,0,1,9.776,2.11,36.117,36.117,0,0,1,9.421,4.136,77.743,77.743,0,0,1,7.687,6.141,28.182,28.182,0,0,0,7.123,4.888,2.551,2.551,0,0,1-.982,4.909Zm413.9,2.36a60.361,60.361,0,0,1-26.027-5.911c-9.3-4.366-18.381-11.008-27.008-19.739a221.425,221.425,0,0,1-21.16-25.964c-10.528-14.58-17.045-23.5-19.405-26.486-7.624-9.483-15.227-17.107-22.58-22.643a2.55,2.55,0,1,1,3.071-4.073h0c7.708,5.786,15.6,13.723,23.5,23.541,2.444,3.112,8.836,11.823,19.551,26.674a215.283,215.283,0,0,0,20.658,25.358c8.188,8.293,16.794,14.58,25.546,18.695a55.448,55.448,0,0,0,30.893,4.992c11.175-1.4,20.053-5.953,26.361-13.515a2.551,2.551,0,1,1,3.927,3.259l-.021.021c-7.185,8.585-17.149,13.744-29.661,15.311a63.026,63.026,0,0,1-7.687.48m-45.7,61.662a67.311,67.311,0,0,1-33.024-8.376c-7.791-4.261-15.6-10.674-23.186-19.029-4.011-4.428-10.34-12.366-18.8-23.583C417.1,242.447,410.813,234.822,406.03,230c-7.248-7.415-14.81-12.888-22.517-16.334a2.558,2.558,0,0,1,2.068-4.679c8.293,3.7,16.4,9.546,24.1,17.421,4.93,4.992,11.363,12.783,19.134,23.144,8.355,11.092,14.58,18.9,18.507,23.228,7.206,7.917,14.559,13.974,21.87,17.985a62.471,62.471,0,0,0,32.335,7.708,63.327,63.327,0,0,0,31.938-9.421,2.556,2.556,0,0,1,2.694,4.345,68.187,68.187,0,0,1-34.507,10.193c-.648,0-1.274.021-1.922.021" transform="translate(44.403 115.074)" fill="#fff"/>
      <path id="Path_21650" data-name="Path 21650" d="M86.035,196.633a2.55,2.55,0,0,1-2.444-1.838c-4.3-14.851-10.528-27.071-18.507-36.366a61.329,61.329,0,0,0-15.541-13.055,50.09,50.09,0,0,0-18.778-6.517,2.549,2.549,0,0,1,.668-5.055,55.227,55.227,0,0,1,20.679,7.165A66.046,66.046,0,0,1,68.97,155.108c8.439,9.838,15.019,22.726,19.53,38.267a2.568,2.568,0,0,1-1.755,3.175,2.653,2.653,0,0,1-.71.1ZM432.422,266a2.608,2.608,0,0,1-2.005-.961c-13.118-16.439-32.69-26.089-58.173-28.7a2.551,2.551,0,1,1,.522-5.076c26.9,2.757,47.625,13.034,61.641,30.6a2.555,2.555,0,0,1-.4,3.593,2.629,2.629,0,0,1-1.587.564" transform="translate(-28.549 145.66)" fill="#ed407a"/>
    </g>
  </g>
</svg>
