<svg xmlns="http://www.w3.org/2000/svg" width="14.967" height="10.467" viewBox="0 0 14.967 10.467">
  <g id="Group_2" data-name="Group 2" transform="translate(-76 81)">
    <path id="Path_21618" data-name="Path 21618" d="M14.344,5.837H.624a.6.6,0,1,1,0-1.208h13.72a.6.6,0,1,1,0,1.208Zm0-4.63H.624A.614.614,0,0,1,0,.6.614.614,0,0,1,.624,0h13.72a.614.614,0,0,1,.624.6A.614.614,0,0,1,14.344,1.208Zm0,9.259H.624a.6.6,0,1,1,0-1.208h13.72a.6.6,0,1,1,0,1.208Zm0,0" transform="translate(76 -81)"/>
  </g>
</svg>
