<svg id="Layer_1-2" xmlns="http://www.w3.org/2000/svg" width="156.979" height="24.016" viewBox="0 0 156.979 24.016">
  <path id="Path_21607" data-name="Path 21607" d="M8.339.59,0,23.8H6.9l1.043-3.192h8.236L17.217,23.8h7.026L15.911.59H8.346ZM9.21,15.258,12.084,6.38l2.833,8.878Z" transform="translate(0 -0.182)" fill="#f9faf4"/>
  <path id="Path_21608" data-name="Path 21608" d="M40.933,6.992c0-.8.94-1.278,2.017-1.278,1.278,0,2.252.67,2.252,1.582h6.6C51.808,3.13,47.932,0,43.026,0s-8.678,2.992-8.678,7.5c0,7.869,11.2,6.833,11.2,9.417,0,.774-1.078,1.375-2.321,1.375-1.444,0-2.625-.836-2.625-1.879H34.01c0,4.27,4.1,7.6,9.147,7.6s8.982-3.1,8.982-7.835c0-8.1-11.2-6.488-11.2-9.182h0Z" transform="translate(-10.513 0)" fill="#f9faf4"/>
  <path id="Path_21609" data-name="Path 21609" d="M101.165,15.151h8.2V9.092h-8.2V6.639h9.279V.58H94.74V23.794h15.877V17.742h-9.451Z" transform="translate(-29.284 -0.179)" fill="#f9faf4"/>
  <path id="Path_21610" data-name="Path 21610" d="M134.211,12.457,126.535.58H120.11V23.794h6.425V11.918l7.676,11.877h6.425V.58h-6.425Z" transform="translate(-37.126 -0.179)" fill="#f9faf4"/>
  <path id="Path_21611" data-name="Path 21611" d="M158.723,6.992c0-.8.94-1.278,2.017-1.278,1.278,0,2.252.67,2.252,1.582h6.6c0-4.166-3.869-7.3-8.781-7.3s-8.678,2.992-8.678,7.5c0,7.869,11.206,6.833,11.206,9.417,0,.774-1.078,1.375-2.321,1.375-1.444,0-2.625-.836-2.625-1.879H151.8c0,4.27,4.1,7.6,9.147,7.6s8.982-3.1,8.982-7.835c0-8.1-11.2-6.488-11.2-9.182h0Z" transform="translate(-46.922 0)" fill="#f9faf4"/>
  <rect id="Rectangle_2723" data-name="Rectangle 2723" width="6.425" height="23.214" transform="translate(124.369 0.401)" fill="#f9faf4"/>
  <path id="Path_21612" data-name="Path 21612" d="M203.829,0C196.8,0,191.49,5.182,191.49,12.008s5.313,12.008,12.339,12.008,12.339-5.182,12.339-12.008S210.863,0,203.829,0Zm.007,17.825a5.663,5.663,0,0,1-5.755-5.817,5.756,5.756,0,1,1,11.51,0A5.659,5.659,0,0,1,203.836,17.825Z" transform="translate(-59.19 0)" fill="#f9faf4"/>
  <path id="Path_21613" data-name="Path 21613" d="M73.746,17.825h0a5.662,5.662,0,0,1-5.755-5.81A5.663,5.663,0,0,1,73.746,6.2a5.4,5.4,0,0,1,4.691,2.494L82.956,3.91A12.3,12.3,0,0,0,73.746,0C66.713,0,61.4,5.182,61.4,12.008s5.313,12.008,12.346,12.008a12.239,12.239,0,0,0,9.472-4.194l-4.581-4.85a5.344,5.344,0,0,1-4.892,2.86h0Z" transform="translate(-18.979)" fill="#f9faf4"/>
</svg>
