<svg xmlns="http://www.w3.org/2000/svg" width="14.656" height="16.402" viewBox="0 0 14.656 16.402">
  <path id="Path_16427" data-name="Path 16427" d="M18.146,15.5a2.9,2.9,0,0,0-5.038-1.962l0,0L9.131,11.154a2.859,2.859,0,0,0,0-1.907l3.975-2.382,0,0a2.918,2.918,0,1,0-.6-1.008h0L8.527,8.244A2.859,2.859,0,0,0,6.4,7.3a2.905,2.905,0,1,0,0,5.811,2.859,2.859,0,0,0,2.132-.949l3.978,2.383h0a2.868,2.868,0,0,0-.164.955,2.9,2.9,0,1,0,5.805,0Z" transform="translate(-3.49 -2)" fill="#f9faf4" opacity="0.4"/>
</svg>
