<svg xmlns="http://www.w3.org/2000/svg" width="20.535" height="16.68" viewBox="0 0 20.535 16.68">
  <g id="Group_3736" data-name="Group 3736" transform="translate(0)">
    <path id="Path_7" data-name="Path 7" d="M1035.374,510.274a8.422,8.422,0,0,1-2.419.666,4.243,4.243,0,0,0,1.855-2.333,8.4,8.4,0,0,1-2.682,1.022,4.211,4.211,0,0,0-7.281,2.883,4.382,4.382,0,0,0,.107.959,11.959,11.959,0,0,1-8.685-4.4,4.213,4.213,0,0,0,1.3,5.621,4.148,4.148,0,0,1-1.9-.526v.051a4.224,4.224,0,0,0,3.376,4.136,4.341,4.341,0,0,1-1.108.143,4.246,4.246,0,0,1-.8-.074,4.227,4.227,0,0,0,3.935,2.926,8.467,8.467,0,0,1-5.232,1.8,9.04,9.04,0,0,1-1-.056A11.981,11.981,0,0,0,1033.28,513l-.013-.545a8.494,8.494,0,0,0,2.106-2.182Zm0,0" transform="translate(-1014.839 -508.301)" fill="#fff"/>
  </g>
</svg>
