<svg xmlns="http://www.w3.org/2000/svg" width="18.403" height="17.585" viewBox="0 0 18.403 17.585">
  <g id="Group_3737" data-name="Group 3737" transform="translate(0)">
    <path id="Path_179" data-name="Path 179" d="M1188.983,518.587v6.8h-3.945v-6.348c0-1.594-.57-2.682-2-2.682a2.157,2.157,0,0,0-2.024,1.443,2.711,2.711,0,0,0-.131.962v6.627h-3.946s.053-10.752,0-11.865h3.946v1.681c-.008.013-.019.026-.026.039h.026v-.039a3.918,3.918,0,0,1,3.555-1.96c2.6,0,4.542,1.7,4.542,5.34Zm-16.171-10.781a2.056,2.056,0,1,0-.052,4.1h.026a2.056,2.056,0,1,0,.026-4.1Zm-2,17.585h3.944V513.526h-3.944Zm0,0" transform="translate(-1170.58 -507.806)" fill="#fff"/>
  </g>
</svg>
