<svg id="Group_3735" data-name="Group 3735" xmlns="http://www.w3.org/2000/svg" width="20.423" height="20.423" viewBox="0 0 20.423 20.423">
  <path id="Path_4" data-name="Path 4" d="M1111.978,507.945h-9.151a5.642,5.642,0,0,0-5.636,5.636v9.151a5.642,5.642,0,0,0,5.636,5.636h9.151a5.643,5.643,0,0,0,5.636-5.636v-9.151a5.642,5.642,0,0,0-5.636-5.636Zm3.824,14.787a3.828,3.828,0,0,1-3.824,3.824h-9.151a3.828,3.828,0,0,1-3.824-3.824v-9.151a3.828,3.828,0,0,1,3.824-3.824h9.151a3.828,3.828,0,0,1,3.824,3.824Zm0,0" transform="translate(-1097.191 -507.945)" fill="#fff"/>
  <path id="Path_5" data-name="Path 5" d="M1113.664,519.157a5.262,5.262,0,1,0,5.263,5.262,5.268,5.268,0,0,0-5.263-5.262Zm0,8.712a3.45,3.45,0,1,1,3.451-3.45,3.454,3.454,0,0,1-3.451,3.45Zm0,0" transform="translate(-1103.453 -514.208)" fill="#fff"/>
  <path id="Path_6" data-name="Path 6" d="M1131.063,515.676a1.329,1.329,0,1,0,.939.389,1.333,1.333,0,0,0-.939-.389Zm0,0" transform="translate(-1115.368 -512.263)" fill="#fff"/>
</svg>
